<svg width="64" height="64" viewBox="0 0 64 64" fill="none" xmlns="http://www.w3.org/2000/svg">
<mask id="mask0_117_668" style="mask-type:alpha" maskUnits="userSpaceOnUse" x="0" y="0" width="64" height="64">
<path d="M32 64C49.6731 64 64 49.6731 64 32C64 14.3269 49.6731 0 32 0C14.3269 0 0 14.3269 0 32C0 49.6731 14.3269 64 32 64Z" fill="#FF8787"/>
</mask>
<g mask="url(#mask0_117_668)">
<path d="M31.9999 63.9995C49.673 63.9995 63.9999 49.6726 63.9999 31.9995C63.9999 14.3264 49.673 -0.000488281 31.9999 -0.000488281C14.3268 -0.000488281 -0.00012207 14.3264 -0.00012207 31.9995C-0.00012207 49.6726 14.3268 63.9995 31.9999 63.9995Z" fill="#E15341"/>
<g opacity="0.1">
<path d="M62.9919 75.3157C63.0993 70.7917 64.0168 66.5884 66.0174 62.8418C68.2648 58.6333 71.354 56.0469 75.2216 55.016C75.421 54.9626 75.6291 54.9376 75.8327 54.9428C76.1546 54.9513 76.3838 55.2019 76.4393 55.5582C76.4942 55.905 76.3475 56.2496 76.0553 56.425C75.923 56.5045 75.7826 56.565 75.6422 56.6184C70.956 58.4023 67.837 62.4197 65.9246 68.1135C65.1571 70.3979 64.7931 72.8149 64.7948 75.3157C64.1951 75.3157 63.5941 75.3157 62.9919 75.3157Z" fill="white"/>
<path d="M36.8575 75.3159C36.3281 74.3205 36.1538 73.182 36.0658 72.0088C36.0536 71.8512 36.0312 71.6945 36.0044 71.4594C35.7373 71.588 35.4881 71.6684 35.2702 71.8229C34.9047 72.082 34.5673 72.4079 34.2018 72.6691C33.9225 72.8685 33.6288 73.0648 33.323 73.1641C32.8532 73.3167 32.4433 72.9521 32.3238 72.3432C32.2134 71.7833 32.265 71.2245 32.3973 70.6866C32.5304 70.1476 32.7038 69.6252 32.8669 69.0716C32.7411 69.1114 32.6111 69.1521 32.4812 69.1928C31.9389 69.36 31.3934 69.4288 30.8511 69.219C30.3047 69.008 29.8909 68.5964 29.7705 67.8327C29.6819 67.2667 29.8352 66.7737 30.1425 66.381C30.429 66.0153 30.7301 65.6622 31.0544 65.3561C31.6404 64.8036 32.2576 64.3064 32.8451 63.755C33.4431 63.1929 34.0241 62.5998 34.6051 62.0085C34.7181 61.8936 34.8093 61.7358 34.8957 61.5834C35.0344 61.3359 35.012 61.1791 34.8078 61.0183C34.4575 60.7424 34.0653 60.6996 33.6699 60.685C33.6014 61.1791 33.489 61.2773 33.1122 61.1948C32.7581 61.1164 32.4692 60.8073 32.4182 60.4292C32.3562 59.9684 32.5142 59.6092 32.8096 59.4035C33.055 59.233 33.3382 59.0911 33.6118 59.0639C34.313 58.9949 34.9667 59.2321 35.5244 59.8086C36.1884 60.496 36.3064 61.4904 35.8035 62.3781C35.576 62.7793 35.3015 63.1512 35.0046 63.4677C34.5011 64.0025 33.9725 64.5008 33.4375 64.9823C32.6475 65.6946 31.8793 66.4363 31.2029 67.3273C31.1385 67.4119 31.0819 67.5069 31.0061 67.6198C31.2506 67.8506 31.5081 67.8715 31.7589 67.8266C32.1649 67.7546 32.5661 67.6396 32.9694 67.5434C33.1849 67.4923 33.4004 67.4139 33.6175 67.3982C34.0563 67.3669 34.3655 67.7618 34.3404 68.331C34.3291 68.5911 34.2742 68.8565 34.2033 69.1018C34.0426 69.6617 33.8572 70.2092 33.6869 70.7648C33.6199 70.9822 33.5665 71.2056 33.5456 71.469C33.6601 71.3791 33.7725 71.2828 33.8902 71.2003C34.3461 70.8808 34.7956 70.5392 35.266 70.2582C35.4929 70.1224 35.76 70.0797 36.0133 70.0399C36.6403 69.9417 37.1077 70.2959 37.3312 71.0604C37.4361 71.4209 37.5191 71.8073 37.5426 72.1895C37.6112 73.3365 37.8896 74.3757 38.3979 75.3148C37.8839 75.3159 37.3706 75.3159 36.8575 75.3159Z" fill="white"/>
<path d="M14.6831 75.3155C14.8961 74.6313 15.0632 73.9149 15.3295 73.2673C16.5948 70.189 18.2733 67.5432 20.3957 65.3851C21.1429 64.6258 21.9442 63.9771 22.8788 63.6658C23.3056 63.5239 23.7212 63.4956 24.1287 63.8193C24.4087 64.0417 24.5774 64.325 24.6266 64.7344C24.6525 64.9495 24.6695 65.1668 24.6856 65.384C24.7001 65.5856 24.784 65.6631 24.9357 65.6505C25.3142 65.618 25.6201 65.3831 25.8848 65.0562C25.9275 65.0039 25.9209 64.8472 25.9 64.7531C25.7194 63.9447 25.5959 63.1227 25.6806 62.2839C25.7152 61.9382 25.8162 61.5777 25.9582 61.281C26.2503 60.6722 26.8411 60.6188 27.1807 61.1861C27.376 61.512 27.5342 61.9215 27.5987 62.3225C27.7077 63.0056 27.7497 63.7106 27.7828 64.4105C27.815 65.1084 27.5939 65.6535 27.113 66.0212C26.7982 66.2615 26.5141 66.5697 26.1987 66.8099C25.6789 67.2069 25.1214 67.4586 24.504 67.3719C23.6479 67.2518 23.1417 66.5404 23.1136 65.4269C23.1113 65.3172 23.1136 65.2075 23.1136 65.0383C22.9166 65.1302 22.7569 65.192 22.6069 65.2786C21.9508 65.6568 21.3753 66.1968 20.8363 66.8005C18.7107 69.1779 17.0177 71.9793 15.8726 75.3155C15.4747 75.3155 15.0793 75.3155 14.6831 75.3155Z" fill="white"/>
<path d="M28.8932 37.7226C29.7032 36.5819 30.5289 35.5394 31.5076 34.7028C31.4715 34.6371 31.4521 34.5879 31.4229 34.5502C30.7749 33.6864 30.5054 32.6294 30.4845 31.4491C30.4828 31.3363 30.4926 31.2203 30.5152 31.1116C30.5653 30.8735 30.6806 30.7096 30.8759 30.6697C31.0768 30.6279 31.2486 30.7178 31.3455 30.9445C31.4182 31.1147 31.465 31.311 31.4939 31.5043C31.6134 32.293 31.7756 33.0534 32.1775 33.698C32.3092 33.9089 32.4043 33.9548 32.5834 33.7742C33.1668 33.1851 33.7705 32.6294 34.3524 32.0381C34.9116 31.4699 35.6032 31.638 35.9228 32.4622C36.0203 32.7151 36.0906 32.9896 36.1494 33.2624C36.406 34.4501 36.6514 35.6419 36.9056 36.8316C36.9936 37.243 37.0952 37.6494 37.1888 38.0589C37.5108 39.4721 38.2122 40.5125 39.1199 41.3503C39.1489 41.3773 39.182 41.3974 39.2353 41.4359C39.2732 41.3377 39.3087 41.2478 39.3418 41.157C39.7412 40.0477 40.0989 38.9092 40.549 37.8353C41.0656 36.605 41.6505 35.4194 42.2339 34.2381C42.5487 33.5998 43.246 33.6529 43.5453 34.3434C43.7399 34.7925 43.8842 35.2941 43.982 35.7943C44.1426 36.6111 44.2539 37.4457 44.3742 38.2751C44.5782 39.6852 44.9317 41.0264 45.462 42.2883C45.7775 43.0383 46.0931 43.7882 46.4142 44.534C46.9767 45.8408 47.699 46.9886 48.5704 47.9621C49.0053 48.448 49.4945 48.8668 49.9947 49.2356C50.7459 49.7892 51.5281 50.2707 52.297 50.7825C52.3357 50.8086 52.3762 50.8326 52.4173 50.8526C52.7199 50.9934 52.753 51.0822 52.6207 51.4689C52.4859 51.8616 52.2382 52.0997 51.9136 52.0788C51.5449 52.0557 51.1585 52.0161 50.8163 51.8542C50.102 51.5157 49.3967 51.1293 48.7141 50.6937C47.4099 49.8591 46.4053 48.5534 45.5363 47.0785C44.6992 45.6579 43.9828 44.1319 43.3533 42.54C42.7708 41.0652 42.5189 39.468 42.3511 37.8438C42.3349 37.6838 42.3147 37.5251 42.2945 37.3664C42.2929 37.3527 42.2753 37.3423 42.2494 37.312C42.2115 37.3934 42.171 37.4688 42.1403 37.5491C41.5426 39.1493 41.0179 40.7852 40.7291 42.5326C40.5636 43.5344 39.8753 44.0629 39.145 43.6796C37.4688 42.7979 36.0945 41.4548 35.4515 39.1713C35.0657 37.8009 34.776 36.3855 34.4436 34.9899C34.4201 34.8909 34.3998 34.7905 34.3693 34.6506C34.2925 34.7122 34.2329 34.7562 34.1756 34.8062C33.8277 35.1071 33.4929 35.434 33.1322 35.7044C31.6731 36.7981 30.4965 38.2877 29.4757 40.0028C29.3773 40.1679 29.2805 40.3359 29.169 40.4863C28.7221 41.0922 28.0538 41.0704 27.6907 40.3777C27.5035 40.0216 27.3816 39.5788 27.3115 39.1526C26.8136 36.138 26.8829 33.137 27.5044 30.1621C27.64 29.5125 27.7908 28.8658 27.97 28.2338C28.4792 26.4362 29.3207 24.9415 30.3924 23.6171C32.5212 20.9869 35.0884 19.3783 37.8053 18.082C38.7882 17.613 39.7736 17.144 40.7323 16.6019C41.2439 16.3125 41.7176 15.8947 42.1823 15.4863C42.6608 15.0653 42.958 14.4616 43.0629 13.7126C43.0862 13.5445 43.121 13.3794 43.158 13.2154C43.2114 12.9783 43.3145 12.7976 43.5244 12.8028C43.731 12.8081 43.8481 12.9846 43.8884 13.2238C43.9909 13.8338 44.0094 14.4459 43.8705 15.0538C43.689 15.8435 43.3291 16.4932 42.8506 17.0092C42.4527 17.4375 42.0315 17.8574 41.5706 18.153C40.5869 18.785 39.5864 19.3793 38.5663 19.9047C37.1105 20.6547 35.729 21.5917 34.3693 22.5861C33.9705 22.8774 33.6074 23.2629 33.2557 23.6474C32.74 24.2092 32.2469 24.8057 31.7482 25.3939C30.7838 26.5302 30.1027 27.909 29.6838 29.5021C29.2167 31.2788 28.8658 33.0922 28.8003 34.9734C28.7713 35.813 28.8318 36.6581 28.8536 37.5012C28.856 37.5523 28.8721 37.6046 28.8932 37.7226Z" fill="white"/>
<path d="M65.2131 32.0369C64.8082 32.0056 64.4118 32.0119 64.0254 31.9346C63.3806 31.8073 62.7859 31.4762 62.2379 31.0208C61.4972 30.4034 61.1621 29.4434 60.9684 28.3841C60.7773 27.3377 60.8241 26.29 61.0363 25.2569C61.4188 23.3965 62.17 21.8339 63.3087 20.5878C64.2093 19.6028 65.2044 18.8026 66.2388 18.0809C66.3211 18.0234 66.4027 17.9618 66.4746 17.9096C66.2928 17.5314 66.1202 17.1721 65.9434 16.8055C65.6086 16.8995 65.2568 17.0238 64.8985 17.0948C64.2278 17.2285 63.5824 17.1136 62.9826 16.678C62.0579 16.0053 61.7246 14.8595 62.0943 13.5768C62.4363 12.386 63.0941 11.5128 63.8534 10.7597C64.1238 10.4912 64.424 10.5257 64.6216 10.7711C64.8073 11.002 64.8291 11.3582 64.6499 11.7405C64.4675 12.1291 64.2481 12.4894 64.068 12.8801C63.8743 13.3021 63.6847 13.7324 63.5362 14.1826C63.4143 14.5524 63.4805 14.7801 63.7607 14.965C63.9971 15.1206 64.2642 15.2564 64.5247 15.2815C64.9161 15.3191 65.3132 15.2501 65.7079 15.2282C65.8346 15.2209 65.8677 15.1217 65.8983 14.9754C65.9854 14.5649 66.0823 14.1576 66.1985 13.7596C66.246 13.5977 66.3381 13.4441 66.4358 13.323C66.615 13.1005 66.8383 13.0535 67.0693 13.1694C67.2944 13.2822 67.4211 13.5131 67.4413 13.8191C67.4524 13.9956 67.4315 14.1774 67.4113 14.355C67.3582 14.8146 67.2774 15.269 67.2443 15.7306C67.2088 16.2289 67.3114 16.6812 67.6688 16.9569C67.743 17.0144 67.8763 17.0426 67.9457 16.9956C68.5411 16.5892 69.1447 16.1965 69.712 15.7317C70.3043 15.246 70.5401 14.4615 70.6224 13.606C70.2843 13.5099 69.9508 13.4514 69.6363 13.3198C67.8786 12.5876 67.0732 10.6698 67.5406 8.34466C67.9246 6.4321 68.9793 5.47739 70.3979 5.11701C71.5584 4.82246 72.6146 5.22879 73.5372 6.15947C74.8897 7.5226 75.561 9.36413 75.711 11.5472C75.7685 12.3829 75.7474 13.2143 75.6046 14.0385C75.26 16.0231 74.357 17.4176 72.9392 18.2595C71.6311 19.0366 70.2503 19.2131 68.8317 19.0366C68.6347 19.0126 68.4322 19.0001 68.245 18.9269C67.9812 18.8246 67.7689 18.9123 67.543 19.0857C66.376 19.9819 65.2187 20.8959 64.1786 22.0366C63.4119 22.8773 62.7915 23.8615 62.396 25.0657C62.0893 26.0016 61.9401 26.969 62.1128 27.9821C62.2773 28.9484 62.6535 29.7432 63.304 30.2863C63.9342 30.8118 64.5966 31.2504 65.3866 31.4834C65.436 31.1179 65.4834 30.77 65.5287 30.421C65.5529 30.2341 65.5585 30.041 65.5997 29.8612C65.7055 29.3953 66.0226 29.1291 66.3679 29.1979C66.6997 29.2638 66.9402 29.6345 66.9522 30.1015C66.953 30.1391 66.9563 30.1788 66.9506 30.2153C66.7423 31.7518 66.3962 33.207 65.4908 34.3287C65.0017 34.9346 64.4248 35.3514 63.7631 35.509C62.6825 35.767 61.5962 35.9864 60.5093 36.1974C59.5515 36.3833 58.596 36.5694 57.6704 36.958C56.848 37.3026 56.2944 38.0087 56.0458 39.0647C55.9466 39.4877 55.9555 39.9588 55.9459 40.409C55.9394 40.7307 55.886 40.8561 55.6311 40.8718C55.2713 40.8937 55.0155 40.6482 54.8274 40.2838C54.5207 39.6904 54.3681 39.0345 54.4271 38.3148C54.5547 36.7449 55.172 35.6009 56.2524 34.8886C57.1724 34.2817 58.1635 33.958 59.1866 33.8659C60.4803 33.7501 61.7786 33.7125 63.0739 33.6247C63.3869 33.6038 63.7041 33.5538 64.0084 33.4556C64.6079 33.2634 64.9904 32.7464 65.2131 32.0369ZM69.8217 17.4604C70.8805 17.4959 71.8908 17.3016 72.7881 16.5381C73.3983 16.0189 73.8171 15.3118 74.0374 14.4062C74.2456 13.5486 74.278 12.6764 74.2062 11.7896C74.0795 10.2207 73.6452 8.8523 72.6915 7.813C71.8571 6.90424 70.8055 6.79455 69.8711 7.51424C69.4288 7.85477 69.1456 8.34361 69.06 8.9975C68.855 10.5716 69.4974 11.7133 70.6507 12.4215C70.6507 12.3108 70.6513 12.2095 70.6507 12.1092C70.6481 11.8251 70.6313 11.5389 70.6465 11.2569C70.6611 10.9727 70.7691 10.7523 70.9951 10.6646C71.1969 10.5862 71.4228 10.6803 71.5486 10.9424C71.6392 11.1315 71.7287 11.3509 71.7448 11.566C71.794 12.2241 71.8595 12.8905 71.8247 13.5454C71.7441 15.0841 71.2186 16.3187 70.1866 17.1502C70.0631 17.2494 69.9436 17.357 69.8217 17.4604Z" fill="white"/>
<path d="M41.1044 65.4732C41.2424 65.4856 41.3497 65.5035 41.457 65.5046C42.9669 65.5274 44.4776 65.5464 45.9875 65.5703C46.303 65.5755 46.6186 65.5818 46.9325 65.6193C47.1382 65.6445 47.2399 65.5714 47.3239 65.3102C47.4787 64.8308 47.662 64.3628 47.8686 63.9168C47.9783 63.6797 48.1428 63.4688 48.3155 63.3016C48.5771 63.0497 48.8765 63.0186 49.1588 63.2609C49.4405 63.5021 49.4938 63.8667 49.4309 64.2668C49.4017 64.4516 49.3436 64.6282 49.3033 64.811C49.1096 65.6759 48.903 66.5364 48.728 67.4076C48.5826 68.1273 48.7683 68.7196 49.1904 69.222C49.8584 70.017 50.6445 70.1883 51.5039 70.017C52.9048 69.7371 54.0095 68.3571 54.2048 66.6304C54.2363 66.3527 54.2435 66.0571 54.2065 65.7823C53.9046 63.5669 52.8782 62.1317 51.2747 61.3763C50.3661 60.9482 49.4178 60.8145 48.4585 61.0359C48.1526 61.1068 47.8474 61.2407 47.5634 61.4068C47.0786 61.6898 46.7662 62.1639 46.7218 62.8869C46.7153 62.9933 46.6628 63.1575 46.604 63.1803C46.5387 63.2064 46.4249 63.1281 46.3611 63.0541C45.6573 62.2362 45.5702 60.9963 46.1771 60.0426C46.779 59.0963 47.5699 58.5499 48.5083 58.3714C51.4515 57.8104 54.8877 60.4301 55.6398 64.6397C56.1964 67.7596 54.8117 70.8431 52.3738 71.8312C51.3337 72.2533 50.2838 72.3034 49.2363 71.8606C48.581 71.5837 48.0227 71.1074 47.5505 70.4609C47.0067 69.7162 46.7734 68.8241 46.8169 67.8055C46.821 67.7043 46.8252 67.6031 46.8306 67.4631C46.7233 67.4631 46.638 67.4579 46.5524 67.464C44.9868 67.5852 43.4212 67.7147 41.855 67.8245C41.3214 67.8621 40.7848 67.8599 40.2506 67.8536C40.0473 67.8517 39.8392 67.8118 39.643 67.745C38.8176 67.464 38.5278 66.5229 38.9667 65.5818C39.187 65.1108 39.4058 64.6397 39.6276 64.1695C40.8244 61.6302 41.8961 59.0075 42.7919 56.2666C42.8861 55.9781 42.9928 55.6973 43.0993 55.4163C43.3568 54.7352 43.7837 54.3633 44.3671 54.4073C45.0828 54.4604 45.7977 54.563 46.5104 54.6735C48.5116 54.9859 50.508 55.3558 52.5127 55.619C53.4568 55.7433 54.4164 55.6743 55.3685 55.691C55.6759 55.6962 55.9859 55.6712 56.2909 55.7078C56.7225 55.7589 56.9688 56.0711 56.9672 56.5015C56.9655 56.9371 56.7178 57.2057 56.2789 57.2734C54.8021 57.5043 53.3197 57.4813 51.842 57.3435C49.7729 57.1502 47.707 56.8953 45.6397 56.6728C45.3702 56.6436 45.0974 56.6332 44.827 56.6499C44.7406 56.6552 44.6124 56.7511 44.5817 56.8474C43.6496 59.7679 42.4569 62.5118 41.2036 65.215C41.1699 65.2873 41.1455 65.3635 41.1044 65.4732Z" fill="white"/>
<path d="M50.467 -0.554694C50.5624 0.0250292 50.6703 0.518055 50.7197 1.01944C50.8399 2.25617 50.693 3.48037 50.5639 4.70249C50.267 7.52069 49.6916 10.2574 49.1169 12.9951C48.7902 14.5546 48.5335 16.1382 48.574 17.7645C48.5901 18.4121 48.665 19.0723 48.7958 19.6969C49.0153 20.7425 49.5512 21.4204 50.3784 21.7077C51.1353 21.971 51.8931 22.0337 52.6646 21.8549C54.0582 21.5332 55.3412 20.871 56.4848 19.7826C57.4304 18.8832 58.1172 17.7321 58.3778 16.2311C58.4561 15.7809 58.4489 15.2827 58.3941 14.8231C58.2665 13.7514 57.7848 13.0453 56.9656 12.7392C56.0731 12.406 55.1847 12.3998 54.3027 12.781C53.4802 13.1361 52.771 13.7389 52.1715 14.5411C51.742 15.1166 51.3911 15.7935 51.5581 16.6312C51.8025 17.8533 52.2464 18.9292 53.1809 19.5277C53.2617 19.5789 53.3157 19.698 53.3827 19.7857C53.3052 19.8463 53.2334 19.9341 53.1487 19.9622C52.3215 20.2432 51.5953 19.9852 50.9762 19.2342C50.5502 18.7172 50.2023 18.1176 49.9441 17.4386C49.5375 16.3669 49.5116 15.2743 49.9289 14.2047C50.1057 13.7524 50.3146 13.2887 50.5922 12.9419C52.3304 10.7755 54.3745 9.91477 56.7638 10.6313C56.8067 10.6439 56.8487 10.6627 56.8905 10.6794C58.4061 11.2414 59.2994 12.5282 59.6053 14.5285C59.7958 15.7768 59.6691 16.9655 59.2672 18.1103C58.9427 19.0337 58.5151 19.8766 57.9452 20.5754C56.2708 22.6299 54.2792 23.7392 51.968 23.8459C51.3482 23.874 50.7415 23.7216 50.1507 23.4782C48.557 22.8191 47.7202 21.3254 47.4144 19.2708C47.1828 17.7113 47.3375 16.1643 47.6177 14.6434C47.9728 12.7152 48.3898 10.8068 48.7466 8.87962C49.1541 6.68087 49.4639 4.45807 49.4633 2.1862C49.4633 1.67019 49.3801 1.15105 49.3091 0.640267C49.251 0.220359 49.0307 -0.0104845 48.7037 -0.0721126C48.515 -0.107627 48.3254 -0.13792 48.1406 -0.19537C47.7832 -0.306091 47.5322 -0.578718 47.4669 -1.06339C47.4022 -1.54492 47.5491 -1.94185 47.8654 -2.17792C48.1084 -2.35863 48.3842 -2.50591 48.6596 -2.57067C50.4389 -2.98848 52.1933 -2.86941 53.9041 -2.06928C54.7102 -1.6922 55.4042 -1.08323 56.0183 -0.316538C56.8842 0.765611 57.1907 2.14337 57.2593 3.64438C57.2602 3.65378 57.2602 3.66319 57.2593 3.67257C57.2369 3.88566 57.2538 4.17606 57.0584 4.21156C56.9519 4.23142 56.7945 4.04549 56.7042 3.90447C56.5322 3.63497 56.3846 3.33729 56.2401 3.04062C55.2533 1.01526 53.7894 -0.0345092 52.0028 -0.396966C51.5032 -0.495154 50.9875 -0.502466 50.467 -0.554694Z" fill="white"/>
<path d="M24.576 46.031C24.0466 46.4572 23.497 46.8937 22.9556 47.345C22.9127 47.3807 22.8853 47.5394 22.9103 47.6021C23.0871 48.047 23.2477 48.5098 23.4728 48.9108C23.7826 49.4624 24.1498 49.9585 24.4816 50.4901C24.5945 50.6719 24.6986 50.8776 24.7633 51.094C24.8688 51.4523 24.8074 51.7927 24.5841 52.0548C24.3662 52.3108 24.1167 52.3191 23.844 52.1937C23.7295 52.1406 23.5817 52.1186 23.4671 52.1635C22.7028 52.4613 21.9396 52.7652 21.185 53.1015C20.926 53.2175 20.6928 53.4326 20.4499 53.6072C20.3538 53.676 20.2667 53.7669 20.1698 53.8305C19.931 53.9894 19.6889 54.001 19.4621 53.795C19.241 53.5945 19.174 53.3052 19.2055 52.97C19.2402 52.6032 19.2975 52.2366 19.3064 51.8689C19.3306 50.836 19.333 49.8018 19.3467 48.7678C19.35 48.5431 19.3669 48.3196 19.3798 48.0366C18.9707 48.1889 18.5882 48.3102 18.217 48.4763C17.3446 48.867 16.4804 49.287 15.6088 49.6807C15.3118 49.8155 15.0068 49.925 14.7002 50.0171C14.1522 50.1821 13.6212 49.6681 13.5341 48.9067C13.476 48.4031 13.589 47.9477 13.7834 47.5206C14.1078 46.8103 14.5186 46.1888 15.0109 45.6727C15.8146 44.8318 16.6167 43.9837 17.46 43.2139C18.3162 42.4326 19.2136 41.7276 20.1093 41.0214C20.4959 40.7164 20.9155 40.4793 21.3295 40.239C21.9436 39.8818 22.51 39.4399 22.9967 38.8321C23.2057 38.5709 23.4162 38.528 23.6132 38.6825C23.8102 38.8373 23.9038 39.1558 23.7843 39.4849C23.6681 39.8056 23.5261 40.1419 23.3283 40.3748C22.9619 40.8072 22.552 41.1781 22.151 41.5573C21.6248 42.0554 21.0866 42.5317 20.5604 43.028C20.0859 43.4749 19.6122 43.9221 19.1522 44.3931C18.221 45.3457 17.2986 46.3131 16.3771 47.2814C16.2544 47.4098 16.1568 47.577 16.0131 47.7745C16.1616 47.7483 16.2738 47.7398 16.3811 47.7074C17.3656 47.4129 18.3493 47.1112 19.3338 46.8186C19.4799 46.7746 19.5364 46.6712 19.5517 46.4875C19.5767 46.1856 19.6106 45.8847 19.651 45.5861C19.7188 45.0806 19.9883 44.7702 20.3143 44.8078C20.6468 44.8466 20.8969 45.1997 20.8719 45.7104C20.8413 46.3527 20.7783 46.9951 20.6863 47.6282C20.4757 49.0727 20.4814 50.5352 20.4257 51.9932C20.4249 52.0089 20.437 52.0268 20.445 52.0466C21.3472 51.8252 22.2494 51.6027 23.1944 51.3707C23.104 51.2172 23.0525 51.1273 23 51.0385C22.4366 50.0839 21.9322 49.0852 21.6692 47.9175C21.6281 47.7357 21.595 47.5498 21.5764 47.3628C21.5223 46.7947 21.6805 46.4551 22.0631 46.1784C22.8176 45.6309 23.5616 45.0606 24.3129 44.507C24.438 44.414 24.4822 44.3065 24.467 44.1164C24.4437 43.8343 24.4363 43.5481 24.4452 43.264C24.4557 42.9224 24.5969 42.6917 24.8059 42.6216C25.0238 42.5495 25.2537 42.6656 25.3717 42.9799C25.4951 43.3099 25.6177 43.66 25.6597 44.0183C25.8791 45.8566 26.3933 47.5894 26.7716 49.3703C27.3028 51.8722 27.364 54.3466 26.6637 56.8096C26.5725 57.1293 26.4643 57.4426 26.3424 57.7445C25.6201 59.5348 24.4711 60.4667 22.9192 60.638C21.8201 60.7591 20.7388 60.6075 19.6534 60.4384C18.9037 60.3215 18.1532 60.2066 17.4003 60.1397C16.9637 60.101 16.5215 60.1356 16.0841 60.1794C15.4281 60.2442 14.9229 60.6578 14.5638 61.3742C14.3298 61.8412 14.1385 62.329 14.0828 62.8878C14.0417 63.3067 14.1595 63.4499 14.4807 63.4007C14.5703 63.3872 14.6623 63.4048 14.7534 63.4081C14.7389 63.5343 14.7438 63.6713 14.7074 63.7862C14.546 64.3002 14.1643 64.5623 13.706 64.4902C13.154 64.4036 12.7416 63.9168 12.6149 63.195C12.506 62.5787 12.5802 61.9833 12.7715 61.4149C13.4034 59.5411 14.5 58.5112 16.0857 58.3421C17.0654 58.2376 18.0338 58.3776 19.0046 58.4903C19.9391 58.5989 20.8719 58.7598 21.8079 58.8058C22.3728 58.833 22.9451 58.7065 23.5098 58.6094C23.911 58.5404 24.2619 58.2898 24.5534 57.9233C25.7605 56.4075 26.3996 54.5878 26.2464 52.3851C26.2085 51.8345 26.0955 51.2788 25.951 50.7566C25.5128 49.1835 25.0441 47.6301 24.576 46.031Z" fill="white"/>
<path d="M-1.72508 61.4682C-0.712324 62.5943 0.511855 63.3318 1.39791 64.6667C1.50605 64.5528 1.61176 64.4557 1.70618 64.3419C2.25332 63.6827 2.7956 63.0183 3.34354 62.3614C3.45652 62.2255 3.45086 62.1158 3.37905 61.9445C3.05626 61.1684 2.74233 60.385 2.43731 59.5965C2.35661 59.3875 2.29446 59.1557 2.26542 58.9258C2.21055 58.4996 2.32028 58.133 2.60192 57.8844C2.88274 57.6369 3.19667 57.6201 3.47265 57.8561C3.68731 58.0401 3.89631 58.2813 4.03672 58.5571C4.41439 59.3009 4.75574 60.0759 5.10759 60.8426C5.24478 61.1423 5.37067 61.4517 5.52801 61.8172C6.15989 61.2155 6.7643 60.641 7.38405 60.0508C7.31546 59.9213 7.27027 59.8262 7.21783 59.7385C6.84016 59.1087 6.45442 58.4872 6.08564 57.85C5.92827 57.5783 5.77817 57.2901 5.67247 56.9808C5.49089 56.4492 5.61678 55.8841 5.94523 55.5769C6.27365 55.27 6.71588 55.3074 7.05643 55.7034C7.22993 55.905 7.3994 56.1275 7.52529 56.3793C7.99817 57.3267 8.4751 58.2719 8.90762 59.2506C9.24656 60.0173 9.07951 60.8687 8.54692 61.4118C7.85049 62.1232 7.15326 62.8335 6.45281 63.5375C5.61195 64.3815 5.04788 64.3617 4.23443 63.4737C4.207 63.4435 4.17715 63.4185 4.13357 63.3777C4.03997 63.4894 3.94795 63.5961 3.85839 63.7056C3.22815 64.4808 2.49944 65.0803 1.78607 65.7153C1.19295 66.2429 0.718444 66.0142 0.211662 65.6058C-0.310452 65.1859 -0.830143 64.7596 -1.34903 64.3334C-1.85662 63.9176 -2.36663 63.5062 -2.86857 63.0789C-3.72881 62.3468 -3.58918 61.1717 -3.19055 60.3798C-3.05176 60.1042 -2.87421 59.8545 -2.69103 59.6246C-1.37969 57.9815 -0.0893412 56.3071 1.26234 54.7206C2.21055 53.6071 3.2241 52.5833 4.24492 51.5795C5.97346 49.879 7.60598 48.0595 8.92136 45.8021C9.08839 45.515 9.27643 45.2464 9.46686 44.9843C9.56127 44.8558 9.67506 44.7398 9.79611 44.6584C10.0584 44.4819 10.3247 44.4975 10.5595 44.744C10.7943 44.9895 10.8613 45.3228 10.783 45.6924C10.7467 45.8637 10.6846 46.0309 10.6112 46.1813C10.0067 47.4232 9.31999 48.5785 8.44684 49.5302C7.38164 50.6916 6.33177 51.8782 5.24317 53.0013C3.82853 54.4593 2.56723 56.1307 1.24863 57.7205C0.299623 58.8653 -0.617909 60.0528 -1.54916 61.2229C-1.60726 61.2949 -1.6581 61.3733 -1.72508 61.4682Z" fill="white"/>
<path d="M16.9922 20.563C17.0487 17.9526 17.369 15.5502 18.1462 13.2794C18.9128 11.0378 20.1507 9.37903 21.9018 8.39298C22.9025 7.82997 23.9136 7.35156 25.0378 7.43722C27.2408 7.60539 28.8249 10.3254 28.3318 13.1206C28.1899 13.9259 27.8468 14.5819 27.4103 15.1585C26.4645 16.4067 25.4792 17.5965 24.3736 18.6107C23.6498 19.275 22.9445 19.9707 22.2255 20.6434C22.0833 20.7761 22.0559 20.892 22.1545 21.0842C22.478 21.7161 22.7847 22.3638 23.1156 22.9895C23.3446 23.4229 23.6498 23.7427 24.0606 23.8606C24.1241 23.8783 24.1879 23.9107 24.2445 23.9536C24.3518 24.035 24.5205 24.1051 24.5447 24.2209C24.6148 24.5605 24.6705 24.9334 24.3849 25.1903C24.3486 25.2227 24.3179 25.2645 24.28 25.2937C23.005 26.2652 21.9647 27.6147 20.8592 28.8587C20.6542 29.0886 20.4541 29.3276 20.2362 29.5347C19.8142 29.9345 19.5285 29.8803 19.1944 29.3664C19.1662 29.3235 19.1355 29.2797 19.1 29.2484C18.7361 28.936 18.5045 28.4817 18.3528 27.9741C17.7935 26.1052 17.2641 24.2231 17.089 22.2145C17.0358 21.62 17.018 21.0215 16.9922 20.563ZM22.7767 24.3086C22.7394 24.2638 22.7209 24.2355 22.6992 24.2146C21.8994 23.471 21.3337 22.4725 20.8915 21.3568C20.509 20.3917 20.4202 19.3503 20.5663 18.2817C20.6058 17.9913 20.7156 17.7458 20.9205 17.5933C21.1142 17.4481 21.3353 17.4816 21.5129 17.6748C21.7421 17.9234 21.7671 18.0655 21.6678 18.4269C21.6468 18.5031 21.6646 18.5982 21.6646 18.6421C22.2899 18.1417 22.8912 17.6142 23.5246 17.164C24.6771 16.3461 25.7067 15.3162 26.6961 14.2111C26.8729 14.0137 27.0309 13.7849 27.1787 13.5509C27.4021 13.1958 27.5201 12.7832 27.5362 12.3205C27.6128 10.2011 26.1545 8.54549 24.5075 9.03224C22.323 9.67672 20.622 11.2383 19.6705 13.9395C18.6683 16.7828 18.2785 19.7796 18.6408 22.8776C18.82 24.4101 19.1662 25.91 19.4381 27.4246C19.4438 27.456 19.4656 27.4832 19.489 27.5311C20.3234 26.0092 21.4766 25.064 22.7767 24.3086Z" fill="white"/>
<path d="M65.8684 -18.054C66.2751 -18.054 66.668 -18.054 67.1118 -18.054C67.065 -17.5797 67.0474 -17.116 66.9699 -16.671C66.6012 -14.5579 65.9579 -12.5889 65.0203 -10.7944C64.4045 -9.61612 63.7468 -8.47339 63.0949 -7.32858C62.2119 -5.77952 61.4357 -4.15316 60.8642 -2.37221C60.7158 -1.91052 60.5908 -1.42794 60.5092 -0.939095C60.3583 -0.0292969 60.6376 0.49402 61.3349 0.703974C61.836 0.854389 62.3386 0.850212 62.8415 0.72382C64.5926 0.283024 65.8828 -0.986099 66.7625 -2.97074C66.8754 -3.22666 66.9449 -3.53479 66.9756 -3.82935C67.0304 -4.35162 66.8012 -4.72661 66.405 -4.84673C66.0789 -4.94597 65.7617 -4.88852 65.4559 -4.72974C64.891 -4.43728 64.4698 -3.92545 64.1422 -3.27052C64.0607 -3.10756 64.0712 -2.96343 64.1737 -2.836C64.2787 -2.70543 64.3931 -2.5874 64.5053 -2.46621C64.5878 -2.37744 64.6724 -2.29282 64.7724 -2.18942C64.7136 -2.12048 64.6838 -2.05885 64.6418 -2.04005C64.1261 -1.80816 63.6127 -1.74026 63.173 -2.25941C62.7479 -2.76183 62.6954 -3.41676 62.8922 -4.06856C63.3772 -5.67089 64.2826 -6.64648 65.6076 -6.90343C65.9135 -6.96299 66.242 -6.94628 66.5469 -6.87524C67.9108 -6.55561 68.7234 -4.88957 68.4265 -3.06683C68.3126 -2.36803 68.0673 -1.74549 67.7501 -1.16681C66.6229 0.89617 65.0469 2.07233 63.1859 2.66668C62.5097 2.88288 61.8253 2.89333 61.1346 2.73039C59.2947 2.29587 58.7703 0.269444 59.0583 -1.30155C59.2044 -2.09958 59.4223 -2.88508 59.6739 -3.63819C60.2575 -5.37945 61.0523 -6.9609 61.952 -8.45772C62.6099 -9.55031 63.2618 -10.6502 63.8888 -11.7721C64.7386 -13.2929 65.3462 -14.9715 65.7256 -16.7848C65.7674 -16.9854 65.7918 -17.1933 65.8151 -17.399C65.8392 -17.6058 65.8497 -17.8137 65.8684 -18.054Z" fill="white"/>
<path d="M40.6862 1.78712C40.3625 1.84353 40.068 1.89889 39.7726 1.94589C38.9286 2.07959 38.086 2.22062 37.2403 2.33447C37.0337 2.36266 36.8119 2.33551 36.6118 2.26344C36.1581 2.10049 35.9411 1.55001 36.0815 0.96611C36.1227 0.795851 36.1888 0.633945 36.2568 0.477263C37.2572 -1.83013 38.2645 -4.13336 39.2587 -6.44598C39.529 -7.07375 39.9291 -7.41114 40.4683 -7.48217C41.2995 -7.59184 42.1339 -7.66601 42.9626 -7.79658C44.6725 -8.06503 46.3794 -8.36272 48.0878 -8.64371C48.2467 -8.66981 48.4098 -8.68339 48.5702 -8.67503C48.9157 -8.65622 49.1787 -8.36167 49.2207 -7.96683C49.2651 -7.55216 49.077 -7.16463 48.7228 -7.05807C48.267 -6.92124 47.802 -6.83037 47.3388 -6.73635C45.2609 -6.31646 43.182 -5.89863 41.1025 -5.49127C40.846 -5.44112 40.7006 -5.2834 40.5691 -4.99301C39.8784 -3.47216 39.1657 -1.96802 38.463 -0.45656C38.3289 -0.168264 38.2016 0.126298 38.0448 0.476221C38.4112 0.433393 38.7221 0.397877 39.0327 0.361319C39.6313 0.291334 40.2293 0.214039 40.8282 0.1545C40.9653 0.140921 41.0145 0.0730257 41.0437 -0.0920124C41.1236 -0.554745 41.2148 -1.01435 41.3075 -1.4729C41.335 -1.60974 41.3696 -1.74762 41.4205 -1.87192C41.5633 -2.22288 41.8369 -2.39106 42.1178 -2.31689C42.409 -2.23959 42.6237 -1.93877 42.6285 -1.53244C42.6317 -1.25146 42.6034 -0.963163 42.5551 -0.688448C42.1646 1.55001 41.766 3.78638 41.3713 6.02379C41.2768 6.55964 41.1889 7.09655 41.0905 7.68149C41.193 7.67209 41.2688 7.67105 41.3439 7.65851C42.455 7.46631 43.5704 7.3044 44.6525 6.89913C44.7962 6.84586 44.9584 6.84377 45.1083 6.8636C45.3456 6.89495 45.5167 7.07147 45.5901 7.37229C45.6661 7.68463 45.6055 7.97709 45.4109 8.1672C45.2455 8.32807 45.047 8.46489 44.8478 8.52756C43.8447 8.8451 42.8359 9.1334 41.8289 9.43423C41.4148 9.55748 41.0049 9.71208 40.5861 9.80087C40.3697 9.84683 40.1253 9.83742 39.9178 9.75388C39.5621 9.61077 39.3723 9.23471 39.3708 8.75632C39.3699 8.42938 39.4136 8.09408 39.4766 7.77549C39.8492 5.90158 40.2335 4.03184 40.6135 2.16107C40.6362 2.05244 40.6556 1.9438 40.6862 1.78712Z" fill="white"/>
<path d="M13.1259 -12.78C12.3415 -11.1766 11.19 -10.3368 9.82297 -9.90437C9.6874 -9.86153 9.55587 -9.80199 9.4203 -9.7623C7.97096 -9.34241 6.8872 -8.22578 6.01325 -6.73312C5.54762 -5.93822 5.30231 -5.03157 5.38623 -4.01835C5.40397 -3.80214 5.475 -3.5786 5.56375 -3.39267C5.65899 -3.19316 5.6259 -3.0908 5.49033 -2.97693C4.9561 -2.52673 4.22175 -2.83698 3.94899 -3.63709C3.78438 -4.11759 3.7876 -4.61792 3.87476 -5.11721C4.09828 -6.39991 4.54698 -7.52071 5.31683 -8.40335C5.52502 -8.64254 5.73564 -8.87967 5.93981 -9.12513C6.65883 -9.98896 7.49727 -10.5666 8.44064 -10.9029C8.94175 -11.0826 9.44289 -11.2665 9.93998 -11.466C10.6219 -11.7407 11.2263 -12.1982 11.7565 -12.8166C12.022 -13.1257 12.2286 -13.4798 12.3262 -13.9426C12.3625 -14.118 12.4924 -14.2601 12.5804 -14.4168C12.628 -14.5003 12.6998 -14.5745 12.7216 -14.6675C12.8419 -15.1845 13.2591 -15.3736 13.5657 -14.9986C13.7295 -14.7991 13.8538 -14.5192 13.941 -14.2455C14.1677 -13.5341 14.2283 -12.7748 14.2299 -12.0133C14.2363 -9.24839 13.7037 -6.68194 12.5005 -4.37455C11.6887 -2.81713 10.8866 -1.25135 10.0441 0.276815C9.62849 1.03098 9.14512 1.72664 8.66738 2.41814C7.92335 3.4961 7.19386 4.58242 6.66205 5.86617C6.26098 6.83551 5.94788 7.8508 5.80101 8.92981C5.72434 9.49075 5.7421 10.0788 5.75984 10.6523C5.76711 10.8821 5.87768 11.114 5.9624 11.3312C6.04876 11.5527 6.17948 11.6853 6.39172 11.561C6.43287 11.537 6.50793 11.5589 6.54665 11.5965C6.56764 11.6164 6.55392 11.7188 6.53858 11.7752C6.41188 12.2233 6.06328 12.4959 5.71304 12.3455C5.47822 12.2452 5.23774 12.0739 5.061 11.8514C4.2944 10.8842 4.11202 9.67876 4.31941 8.36263C4.63412 6.36441 5.35475 4.61793 6.37154 3.07827C6.82344 2.39411 7.31328 1.74962 7.80393 1.11141C8.39059 0.347842 8.90786 -0.481526 9.38076 -1.3673C9.94725 -2.42856 10.521 -3.48669 11.1383 -4.49676C12.5618 -6.8261 13.1614 -9.48863 13.1413 -12.4217C13.1388 -12.5398 13.1308 -12.6599 13.1259 -12.78Z" fill="white"/>
<path d="M16.5424 -3.64032C16.5093 -4.84362 16.4883 -6.04798 16.4407 -7.25026C16.3858 -8.6604 16.6247 -9.11477 17.6366 -9.63391C19.4418 -10.5604 21.2382 -11.5172 23.0362 -12.4678C23.4598 -12.6913 23.7084 -12.5712 23.893 -12.028C23.9141 -11.9664 23.9618 -11.9016 24.0086 -11.8765C24.4329 -11.6551 24.6242 -11.2091 24.6719 -10.6628C24.7283 -10.0131 24.7235 -9.35397 24.7873 -8.70531C24.9148 -7.40693 25.072 -6.11378 25.2157 -4.81855C25.3376 -3.71971 25.1173 -3.13685 24.3031 -2.79319C22.6156 -2.08185 21.0235 -1.10206 19.4467 -0.0690098C18.9956 0.226596 18.5324 0.491911 18.0675 0.749913C17.8819 0.853323 17.6802 0.942107 17.4809 0.966133C17.0088 1.02358 16.6037 0.642323 16.494 0.0229092C16.4375 -0.295677 16.4302 -0.635154 16.4359 -0.96523C16.4512 -1.85727 16.4859 -2.74828 16.5133 -3.63927C16.523 -3.63927 16.5327 -3.64032 16.5424 -3.64032ZM22.8311 -10.786C22.7665 -10.7568 22.711 -10.7401 22.6609 -10.7087C21.1776 -9.75717 19.6952 -8.80348 18.2112 -7.854C18.0998 -7.78297 18.0659 -7.69524 18.0877 -7.53959C18.1216 -7.29726 18.1587 -7.0518 18.1612 -6.80633C18.1813 -5.15698 18.1918 -3.5087 18.2063 -1.85936C18.2072 -1.74655 18.2063 -1.63478 18.2063 -1.48541C18.2959 -1.51988 18.3653 -1.53869 18.4307 -1.57315C18.9738 -1.85832 19.5274 -2.11423 20.0551 -2.44012C21.0824 -3.07418 22.1356 -3.6121 23.2153 -4.07693C23.9842 -4.40805 23.9093 -4.21272 23.7075 -5.23637C23.3492 -7.06225 22.8973 -8.85991 22.8311 -10.786Z" fill="white"/>
<path d="M15.5787 41.3608C15.1357 41.2084 14.6821 41.0924 14.2512 40.8938C13.5015 40.5492 12.8172 40.03 12.1676 39.4388C10.1147 37.5691 8.41759 35.2597 7.09174 32.5009C6.62852 31.5379 6.25005 30.5215 6.12739 29.3788C6.10723 29.1918 6.09996 29.0007 6.10562 28.8115C6.13546 27.7338 6.67938 26.9921 7.51379 26.9973C7.92211 27.0004 8.34577 27.1173 8.73473 27.2866C9.5183 27.6271 10.222 28.1735 10.866 28.8514C11.0403 29.0351 11.2598 29.1459 11.4357 29.3255C13.3563 31.2851 15.0267 33.5423 16.3284 36.2351C16.6834 36.9696 16.9893 37.7382 17.1176 38.599C17.1563 38.858 17.1806 39.1264 17.1733 39.3898C17.1426 40.5616 16.5293 41.2887 15.594 41.2824C15.59 41.3096 15.5843 41.3357 15.5787 41.3608ZM15.7998 39.1443C15.7449 38.8696 15.7223 38.575 15.6295 38.3243C15.3414 37.5482 15.0727 36.7502 14.7144 36.0305C13.55 33.696 11.9812 31.8472 10.2898 30.1841C9.71522 29.6192 9.00508 29.2826 8.34738 28.8671C8.16744 28.7532 7.956 28.7092 7.75425 28.6696C7.45164 28.6111 7.37336 28.7125 7.43146 29.1063C7.47343 29.3923 7.52831 29.6912 7.63483 29.9429C7.94068 30.6658 8.2344 31.4053 8.60643 32.0697C9.91051 34.4052 11.5019 36.3751 13.3232 38.0256C13.7832 38.4422 14.2843 38.7901 14.7855 39.1234C15.0211 39.2801 15.2979 39.3385 15.5609 39.419C15.7126 39.4671 15.799 39.3689 15.7998 39.1443Z" fill="white"/>
<path d="M62.3672 51.3801C62.6077 51.8825 62.8957 52.2805 63.2436 52.6053C64.5284 53.8034 65.9543 54.146 67.485 53.7115C68.7084 53.3637 69.8794 52.806 70.951 51.9546C71.3481 51.6392 71.7177 51.2558 72.0728 50.862C72.6279 50.2447 72.8902 49.4205 72.9749 48.494C72.9805 48.4302 72.9757 48.3645 72.9757 48.2537C72.8926 48.3257 72.829 48.3821 72.7644 48.4365C71.859 49.2096 70.9641 50.0043 70.0442 50.746C69.6689 51.049 69.2452 51.2589 68.8312 51.4709C68.5537 51.613 68.3098 51.4907 68.1945 51.2286C68.0782 50.9654 68.1185 50.6239 68.334 50.3794C68.5373 50.1495 68.7602 49.9438 68.9892 49.7601C69.3258 49.4915 69.6737 49.245 70.0222 49.0027C71.0488 48.2892 71.9726 47.391 72.8475 46.4007C72.8967 46.3444 72.9468 46.288 73.0008 46.2388C73.4906 45.7927 74.1395 46.1291 74.1669 46.8979C74.2379 48.8639 73.9991 50.7534 72.7999 52.1342C70.9066 54.3152 68.706 55.6294 66.1262 55.6261C64.8212 55.6241 63.6117 55.1278 62.5383 54.1367C61.9823 53.6238 61.5546 52.9792 61.2997 52.1498C61.1262 51.5839 61.139 51.0196 61.2762 50.4515C61.3393 50.1902 61.5047 50.0692 61.6926 49.9878C62.0405 49.8374 62.389 49.6911 62.7344 49.5333C64.5654 48.6956 66.2166 47.4515 67.7038 45.8387C67.8499 45.68 67.9935 45.5171 68.1461 45.3698C68.3638 45.1597 68.5737 45.1421 68.7585 45.3008C68.9394 45.4553 69.0273 45.7677 68.9585 46.0853C68.9191 46.266 68.8667 46.4508 68.7859 46.6045C68.6586 46.8457 68.5245 47.0943 68.3551 47.2824C66.8 48.9964 65.1014 50.3909 63.1234 51.1461C62.8829 51.2338 62.6384 51.2954 62.3672 51.3801Z" fill="white"/>
<path d="M-4.17212 28.0795C-3.34095 27.9142 -2.52266 27.8172 -1.75766 27.3953C-1.71812 27.3733 -1.68342 27.3356 -1.64791 27.3012C-1.29526 26.9597 -0.972472 27.0004 -0.727957 27.4767C-0.510074 27.9018 -0.338994 28.3677 -0.140478 28.8096C-0.0283084 29.0591 0.0983877 29.2972 0.25494 29.6148C0.297711 29.3799 0.319499 29.2347 0.35097 29.0926C0.701198 27.5174 1.23784 26.0643 2.03594 24.7806C2.28206 24.3857 2.59516 24.295 2.95992 24.3618C3.39488 24.4413 3.82903 24.5362 4.26641 24.5875C4.51416 24.6156 4.76674 24.5697 5.01691 24.5571C5.01932 24.5301 5.02174 24.5029 5.02418 24.4757C4.99351 24.4391 4.96445 24.4014 4.93216 24.367C3.04386 22.329 1.85114 19.7533 1.37583 16.6301C1.32176 16.2729 1.34032 15.8948 1.34436 15.5271C1.34597 15.3902 1.38874 15.2482 1.43313 15.1207C1.56466 14.7426 1.82531 14.5431 2.09565 14.5985C2.36356 14.6528 2.5056 14.9191 2.575 15.3505C2.70895 16.1841 2.8413 17.0218 3.03417 17.8334C3.14634 18.3056 3.33517 18.7683 3.55871 19.1704C4.2067 20.3341 4.92411 21.4256 5.76094 22.3761C6.27176 22.956 6.83018 23.4375 7.45237 23.7947C7.5726 23.8635 7.69285 23.9388 7.79936 24.037C8.02047 24.2408 8.12942 24.5249 8.07132 24.8769C8.01402 25.2299 7.8276 25.4387 7.55727 25.4951C7.06582 25.5976 6.57032 25.6716 6.07889 25.775C5.81904 25.8305 5.56243 25.9141 5.30661 25.9997C4.59566 26.24 3.89038 26.078 3.1899 25.9307C2.91716 25.8732 2.75414 25.962 2.6097 26.2546C1.98429 27.5215 1.48558 28.8523 1.32338 30.3606C1.31853 30.4076 1.31369 30.4546 1.30643 30.5017C1.18216 31.3382 0.831928 31.5389 0.221853 31.212C-0.288155 30.9394 -0.645645 30.4829 -0.922436 29.898C-1.10159 29.5177 -1.26298 29.1228 -1.42599 28.7312C-1.48167 28.5976 -1.52686 28.5431 -1.66244 28.5943C-2.5138 28.9119 -3.36516 29.2315 -4.22458 29.5084C-4.86935 29.7163 -5.26639 29.3673 -5.37615 28.5159C-5.46895 27.7963 -5.51414 27.0661 -5.59806 26.3443C-5.63598 26.0184 -5.70457 25.6958 -5.78285 25.3812C-5.95877 24.6753 -5.64325 24.1195 -5.07433 24.1132C-4.60789 24.108 -4.14228 24.0475 -3.67664 24.0266C-3.51847 24.0192 -3.34498 24.012 -3.20376 24.0851C-3.10208 24.1382 -2.99476 24.3159 -2.9778 24.4548C-2.96328 24.5771 -3.04559 24.79 -3.13114 24.8475C-3.45312 25.0638 -3.79043 25.2434 -4.12856 25.4126C-4.2843 25.4909 -4.33434 25.585 -4.31577 25.8086C-4.26251 26.4499 -4.23266 27.0944 -4.19391 27.7368C-4.18827 27.838 -4.181 27.9395 -4.17212 28.0795Z" fill="white"/>
<path d="M-5.01849 -2.02019C-5.15728 -2.35967 -5.2751 -2.66363 -5.40421 -2.95925C-5.62451 -3.46271 -5.86742 -3.95051 -6.0724 -4.46442C-6.32417 -5.09532 -6.43472 -5.76488 -6.2814 -6.47413C-6.05866 -7.5051 -5.36951 -8.25194 -4.46569 -8.31983C-3.97424 -8.3564 -3.47554 -8.24569 -2.98007 -8.19449C-2.7759 -8.17361 -2.57334 -8.11512 -2.36917 -8.10885C-2.0593 -8.09945 -1.98909 -8.19449 -2.01411 -8.59978C-2.04881 -9.15756 -2.12144 -9.71222 -2.14322 -10.27C-2.15775 -10.645 -2.14807 -11.0346 -2.08351 -11.3971C-1.86401 -12.6328 -1.12886 -13.3451 -0.152414 -13.2449C0.371313 -13.1916 0.889393 -13.0412 1.4107 -12.9336C1.84243 -12.8448 1.99818 -12.967 1.99818 -13.5373C1.99818 -14.0429 1.91264 -14.5485 1.86018 -15.054C1.85131 -15.1376 1.81741 -15.2159 1.80208 -15.2984C1.7464 -15.6034 1.81419 -15.875 1.99172 -16.0327C2.18863 -16.2062 2.40812 -16.2145 2.58889 -16.0369C2.7414 -15.8876 2.88828 -15.686 2.96978 -15.4666C3.30789 -14.5537 3.39344 -13.5937 3.1699 -12.615C2.95041 -11.6551 2.38231 -11.1349 1.61244 -11.2216C1.09598 -11.2801 0.58597 -11.4389 0.0711184 -11.5329C-0.593021 -11.653 -0.784275 -11.4357 -0.785083 -10.5573C-0.785891 -10.1499 -0.751188 -9.74251 -0.734241 -9.33515C-0.722138 -9.03221 -0.703578 -8.72826 -0.704386 -8.42535C-0.709228 -7.245 -1.23376 -6.47204 -2.14403 -6.40101C-2.57656 -6.36759 -3.01638 -6.48458 -3.45295 -6.53053C-3.77251 -6.56501 -4.09771 -6.65692 -4.41084 -6.61201C-4.97491 -6.53158 -5.22022 -6.00303 -5.04753 -5.30215C-4.95634 -4.93343 -4.82237 -4.58245 -4.69568 -4.23045C-4.47055 -3.60269 -4.22685 -2.98535 -4.00814 -2.3534C-3.72893 -1.54806 -3.83869 -0.91193 -4.35837 -0.340565C-4.58675 -0.0898743 -4.83691 0.130526 -5.08869 0.341522C-6.01266 1.11762 -6.90035 1.95639 -7.72186 2.90692C-7.92925 3.14718 -8.12856 3.39996 -8.3166 3.66423C-8.6184 4.08726 -8.85566 4.56045 -8.95168 5.13704C-8.967 5.23104 -9.0356 5.34906 -9.10016 5.37832C-9.14455 5.39817 -9.24218 5.30206 -9.28818 5.2279C-9.7869 4.42048 -9.937 3.52008 -9.68119 2.52984C-9.4617 1.68272 -9.0711 0.978695 -8.56191 0.382261C-7.60483 -0.738536 -6.52349 -1.56373 -5.2517 -1.9314C-5.19037 -1.9502 -5.12903 -1.97841 -5.01849 -2.02019Z" fill="white"/>
<path d="M32.305 56.5141C32.3849 56.4264 32.4526 56.3565 32.5164 56.2812C34.5992 53.8172 36.6829 51.3541 38.7625 48.8849C39.0159 48.584 39.2338 48.232 39.4935 47.9416C39.6589 47.7566 39.8607 47.5864 40.0682 47.5123C40.3401 47.415 40.5887 47.5729 40.7613 47.8715C40.9333 48.1704 40.9646 48.5087 40.8364 48.8378C40.7661 49.0174 40.6564 49.1866 40.5362 49.3172C39.6774 50.25 38.8028 51.1577 37.9514 52.101C36.2367 54.0009 34.5331 55.9177 32.827 57.8324C32.7117 57.962 32.6067 58.1102 32.514 58.268C32.2195 58.7672 31.6239 58.9407 31.3487 58.3349C31.3309 58.2961 31.2995 58.2617 31.268 58.2419C30.7555 57.9128 30.4651 57.3268 30.2562 56.6833C29.2757 53.6729 28.8947 50.5645 29.4716 47.3399C29.5959 46.6475 29.8341 45.9809 30.0696 45.3333C30.2568 44.8193 30.537 44.6587 30.816 44.7725C31.1106 44.8925 31.2357 45.234 31.1889 45.8065C31.1761 45.9663 31.1567 46.1261 31.1317 46.2839C30.7031 49.0196 30.8557 51.6989 31.6006 54.3175C31.7878 54.9744 32.0007 55.6201 32.204 56.2697C32.2275 56.347 32.2639 56.417 32.305 56.5141Z" fill="white"/>
<path d="M65.5894 42.8106C65.5669 43.7266 65.3684 44.578 64.9713 45.329C64.1167 46.9427 62.9967 48.0919 61.4877 48.519C61.4021 48.5432 61.3142 48.5702 61.2278 48.5713C60.9679 48.5743 60.7193 48.5743 60.462 48.7038C60.2125 48.8292 59.9576 48.6675 59.7913 48.4084C59.5775 48.0752 59.3435 47.7314 59.2207 47.3398C58.7091 45.705 58.2283 44.0547 57.7546 42.4011C57.6359 41.9875 57.5624 41.5445 57.5206 41.107C57.5003 40.8961 57.577 40.6505 57.6544 40.4489C57.7054 40.3172 57.8264 40.2127 57.9337 40.1387C59.0561 39.3679 60.2369 38.8402 61.5232 38.8768C62.619 38.9092 63.6254 39.3657 64.5284 40.169C65.2393 40.8009 65.5756 41.7013 65.5894 42.8106ZM60.992 47.1267C61.3125 46.9031 61.6433 46.6807 61.9677 46.4447C62.5648 46.01 63.1193 45.5014 63.6019 44.8673C63.9933 44.3523 64.2595 43.7549 64.3346 43.03C64.4097 42.303 64.2386 41.718 63.7294 41.3419C63.0354 40.8301 62.2947 40.5136 61.4892 40.5471C60.721 40.5795 59.9841 40.8334 59.2669 41.1812C59.2555 41.1864 59.249 41.2093 59.2612 41.1884C59.8381 43.1689 60.4095 45.1275 60.992 47.1267Z" fill="white"/>
<path d="M34.9218 4.96264C35.4268 4.93131 35.9321 4.88745 36.4371 4.87491C36.6842 4.86864 36.9376 4.88745 37.1772 4.95535C37.4798 5.04203 37.5645 5.27602 37.625 5.66041C37.7195 6.26519 37.6098 6.82924 37.4911 7.39645C37.2023 8.76896 36.9319 10.1499 36.601 11.5057C36.4016 12.3236 36.1208 13.1122 35.8393 13.8904C35.7657 14.093 35.5672 14.2727 35.3955 14.3562C34.2043 14.938 32.8938 14.4983 32.0537 13.2563C31.4379 12.3455 31.1458 11.2571 31.0297 10.0746C30.8909 8.66661 30.9764 7.29198 31.3928 5.96646C31.5154 5.57684 31.7268 5.3951 32.0481 5.23109C32.7728 4.85924 33.5046 4.971 34.2389 4.95326C34.4657 4.94699 34.6934 4.95221 34.9209 4.95221C34.9218 4.9543 34.9218 4.95848 34.9218 4.96264ZM36.3605 6.24952C35.8796 6.31533 35.4155 6.3874 34.9507 6.44171C34.1494 6.53573 33.3464 6.61617 32.5451 6.71435C32.4935 6.72062 32.4192 6.82717 32.4079 6.90027C32.2812 7.76934 32.2005 8.64675 32.2973 9.52939C32.4192 10.6366 32.709 11.6425 33.4062 12.38C33.7354 12.7278 34.1187 12.8594 34.5336 12.826C34.6029 12.8208 34.7063 12.7184 34.7289 12.6317C35.267 10.5666 35.7964 8.4974 36.3274 6.42815C36.3404 6.378 36.3468 6.32473 36.3605 6.24952Z" fill="white"/>
<path d="M-5.86618 8.43873C-5.86862 7.74934 -5.69996 7.33571 -5.34408 7.07771C-5.15444 6.93982 -4.94543 6.83536 -4.73643 6.75599C-3.65751 6.34443 -2.6157 5.82006 -1.61908 5.14216C-1.34068 4.9531 -1.05178 4.78492 -0.758845 4.6387C-0.60552 4.56244 -0.432019 4.51856 -0.268203 4.52273C0.0408683 4.53109 0.282961 4.79641 0.364466 5.15886C0.443549 5.50879 0.351552 5.88796 0.115917 6.12402C0.0182729 6.22117 -0.0930901 6.29952 -0.204453 6.36846C-1.40604 7.11635 -2.60682 7.86632 -3.81324 8.60169C-3.99401 8.71136 -4.03032 8.82521 -3.99884 9.07697C-3.68977 11.5578 -3.39685 14.0406 -3.09261 16.5225C-3.04017 16.9528 -2.93849 17.3727 -2.89169 17.8041C-2.85779 18.1175 -2.82873 18.4538 -2.882 18.7547C-2.98932 19.3615 -3.46947 19.5611 -3.86893 19.2059C-4.12636 18.9772 -4.26192 18.6408 -4.32246 18.2616C-4.42978 17.5931 -4.50484 16.9173 -4.61296 16.2488C-4.93011 14.2903 -5.26097 12.3359 -5.57971 10.3785C-5.69188 9.68279 -5.78632 8.9819 -5.86618 8.43873Z" fill="white"/>
<path d="M10.6625 21.8592C9.98225 21.7141 9.05342 21.5386 8.13267 21.3098C7.50162 21.1531 6.87782 20.9369 6.25725 20.7155C6.05713 20.6444 5.86185 20.5034 5.69318 20.3436C5.27516 19.9498 5.21867 19.2917 5.53987 18.7684C5.61732 18.6431 5.71012 18.5334 5.79648 18.4175C6.80358 17.0669 7.81633 15.7236 8.81375 14.3605C9.08732 13.9865 9.35686 13.7567 9.75551 14.0116C9.80312 14.0419 9.8701 14.0283 9.92739 14.0252C10.3381 14.0011 10.6537 14.2612 10.803 14.7543C10.8215 14.8159 10.8433 14.8796 10.8489 14.9433C10.999 16.6125 11.4768 18.1783 11.7649 19.8036C11.8173 20.0982 11.8649 20.4 11.8722 20.7008C11.8916 21.4498 11.4905 21.925 10.6625 21.8592ZM9.33265 16.0286C8.62332 17.0857 7.92689 18.1229 7.21273 19.1873C8.19319 19.5863 9.18255 19.7305 10.2203 19.8662C9.91771 18.5585 9.62879 17.3103 9.33265 16.0286Z" fill="white"/>
<path d="M50.9545 43.0121C51.1086 42.8429 51.2231 42.6988 51.3516 42.5797C51.5999 42.3466 51.8437 42.0971 52.1132 41.9112C52.5273 41.625 52.95 41.7419 53.2293 42.2297C53.3963 42.5223 53.5263 42.8627 53.6279 43.2043C53.8467 43.9385 54.0298 44.6896 54.2405 45.4282C54.6537 46.8791 55.2275 48.2191 55.923 49.4748C56.0327 49.6731 56.1352 49.8873 56.2055 50.1128C56.3168 50.4681 56.1853 50.7282 55.8899 50.7857C55.6326 50.8357 55.3992 50.7249 55.2177 50.5118C54.9103 50.1494 54.6003 49.7797 54.3389 49.3618C53.3811 47.8336 52.775 46.0758 52.386 44.1841C52.3505 44.0106 52.3079 43.8384 52.2674 43.6671C52.2641 43.6523 52.248 43.6429 52.211 43.6003C52.0351 43.8497 51.8559 44.0964 51.6831 44.3502C51.5525 44.5424 51.4386 44.7544 51.3015 44.9382C50.8761 45.5044 50.2751 45.5379 49.8626 44.956C49.631 44.629 49.4503 44.2165 49.3171 43.8038C48.9474 42.6579 48.7828 41.441 48.6505 40.217C48.6231 39.9631 48.5941 39.7082 48.5876 39.4533C48.5747 38.952 48.7659 38.5519 49.0848 38.3764C49.4187 38.1925 49.8262 38.2802 50.0629 38.6773C50.237 38.9696 50.3848 39.3227 50.4525 39.678C50.6027 40.4686 50.6937 41.2771 50.8117 42.0782C50.8528 42.3738 50.9003 42.6664 50.9545 43.0121Z" fill="white"/>
<path d="M25.9352 0.251617C25.9578 -0.389734 26.1531 -1.12091 26.4533 -1.80405C27.0036 -3.05645 27.762 -4.01116 28.783 -4.64104C30.3566 -5.61349 31.998 -6.27051 33.7175 -6.6309C34.0823 -6.70715 34.4374 -6.88576 34.7861 -7.05497C35.2145 -7.26284 35.5019 -7.66604 35.6405 -8.23845C35.6802 -8.40139 35.7237 -8.5633 35.7779 -8.71788C35.8513 -8.92889 35.9642 -9.08767 36.1619 -9.07304C36.367 -9.05841 36.505 -8.88816 36.5274 -8.65312C36.559 -8.3314 36.5799 -7.98358 36.5202 -7.67438C36.3371 -6.73012 35.8632 -6.05953 35.2145 -5.59366C34.5253 -5.09958 33.7652 -4.89068 33.0035 -4.68072C32.3021 -4.48748 31.5896 -4.33079 30.9085 -4.05191C30.3477 -3.8221 29.8061 -3.48264 29.2897 -3.11285C28.2359 -2.35765 27.6854 -1.12509 27.474 0.374873C27.353 1.2314 27.6273 1.80068 28.4061 2.04197C28.4923 2.06912 28.5707 2.13389 28.653 2.18193C28.6062 2.28535 28.5731 2.40756 28.5102 2.49008C28.1665 2.9361 27.759 3.09277 27.2835 2.9173C26.4402 2.60602 25.9221 1.64191 25.9352 0.251617Z" fill="white"/>
<path d="M56.0577 28.7605C56.8405 28.7773 57.6838 29.055 58.4553 29.6598C58.8691 29.9848 59.2727 30.3305 59.6883 30.65C60.0901 30.9594 60.3701 31.4209 60.6478 31.8867C60.7584 32.0717 60.689 32.2263 60.5599 32.3454C60.2741 32.6066 59.9506 32.6514 59.6349 32.5126C59.0951 32.2744 58.5698 31.9807 58.0347 31.7239C57.6588 31.5432 57.2835 31.3479 56.8954 31.2193C55.513 30.7628 53.3712 32.1353 52.8144 33.884C52.6021 34.5503 52.5797 35.1625 52.9243 35.7611C53.0719 36.0169 53.0299 36.1183 52.7813 36.1527C52.1689 36.2374 51.6854 35.8519 51.4604 35.081C51.2198 34.2569 51.2522 33.4244 51.4401 32.594C51.591 31.9265 51.8518 31.3342 52.2286 30.8403C53.2493 29.5011 54.4801 28.7814 56.0577 28.7605Z" fill="white"/>
<path d="M39.1285 30.2143C39.1639 28.6798 39.1922 27.1445 39.2382 25.61C39.2697 24.5623 39.5473 24.1633 40.3447 23.9952C41.3639 23.781 42.3855 23.5868 43.4056 23.3809C43.5353 23.3548 43.6638 23.3121 43.7913 23.2681C44.4561 23.0404 45.1412 23.6108 45.0339 24.6772C44.9185 25.8303 44.8848 26.9982 44.8299 28.1609C44.8162 28.4513 44.8597 28.7467 44.8734 29.0392C44.8985 29.5928 44.7363 29.9542 44.3214 30.0818C43.8462 30.228 43.3546 30.2855 42.8729 30.4024C42.0239 30.6081 41.1773 30.8295 40.3292 31.0448C40.1712 31.0844 40.0147 31.1399 39.8549 31.1587C39.3738 31.2172 39.0697 30.8369 39.1285 30.2143ZM43.6372 24.509C43.2586 24.6291 42.8866 24.7493 42.5146 24.8653C41.8811 25.0628 41.2485 25.2643 40.6126 25.4492C40.4496 25.4973 40.3906 25.5809 40.3867 25.8064C40.3632 27.0191 40.3244 28.2308 40.2913 29.4435C40.2898 29.5145 40.2913 29.5856 40.2913 29.6429C41.4462 29.4278 42.5799 29.2169 43.6977 29.0079C43.6775 28.2434 43.6492 27.4965 43.6396 26.7496C43.6289 26.0049 43.6372 25.2602 43.6372 24.509Z" fill="white"/>
<path d="M4.97529 36.4775C4.943 37.9254 4.64845 39.2424 4.0755 40.4438C3.93267 40.7436 3.7269 41.0057 3.51628 41.2334C3.25885 41.5111 3.01273 41.4632 2.77386 41.1635C2.74238 41.1236 2.71171 41.0799 2.6746 41.0527C1.62311 40.3099 1.1825 39.0722 1.09857 37.6141C0.981563 35.5835 1.46817 33.7628 2.40588 32.1406C2.60439 31.7971 2.94333 31.7008 3.30404 31.8513C3.65508 31.9965 3.9125 32.3014 4.11666 32.6828C4.58632 33.5612 4.80421 34.5597 4.91558 35.6033C4.94705 35.9042 4.95752 36.207 4.97529 36.4775ZM3.10633 33.7806C2.77225 35.1364 2.47931 36.441 2.68589 37.8344C2.74965 38.2617 2.86908 38.6638 3.07325 39.0304C3.77531 37.6903 3.80032 35.0423 3.10633 33.7806Z" fill="white"/>
<path d="M13.5939 3.34031C13.4269 3.01128 13.276 2.72297 13.1323 2.42842C13.0234 2.20383 12.9072 1.98136 12.8224 1.74215C12.6497 1.25226 12.77 0.737302 13.0944 0.498101C13.4204 0.257855 13.8247 0.385291 14.0547 0.839667C14.4315 1.58547 14.8173 2.32711 15.1514 3.1053C15.642 4.24907 16.0931 5.42207 16.5523 6.58779C16.6378 6.80506 16.6991 7.04321 16.7435 7.28138C16.7936 7.54356 16.7589 7.79739 16.5676 7.96346C16.386 8.1212 16.1932 8.0909 16.0318 7.93318C15.8341 7.74098 15.6186 7.54563 15.483 7.28867C15.0949 6.55437 14.7406 5.78977 14.3767 5.03457C14.2653 4.80267 14.1661 4.56034 14.0547 4.30756C13.6778 4.58539 13.3171 4.83715 12.9701 5.11916C12.9088 5.16929 12.8781 5.34061 12.8797 5.45447C12.9031 6.93354 12.9443 8.41261 12.9588 9.89169C12.9645 10.4777 12.9289 11.0679 12.8838 11.6518C12.8652 11.8889 12.7998 12.1375 12.707 12.3443C12.5246 12.7485 12.1446 12.8195 11.9089 12.4665C11.7604 12.244 11.6644 11.9306 11.6144 11.6371C11.5587 11.3091 11.5789 10.9582 11.5716 10.6177C11.5417 9.21484 11.5103 7.81199 11.4869 6.40813C11.4788 5.91616 11.4804 5.42207 11.5022 4.93115C11.524 4.43604 11.7556 4.15714 12.1155 4.00881C12.6029 3.80618 13.0823 3.57324 13.5939 3.34031Z" fill="white"/>
<path d="M-0.56526 12.994C-0.461967 16.4222 -0.408706 19.8545 0.0440071 23.2504C0.087584 23.5784 0.0730581 23.9346 0.0262535 24.2635C-0.0286207 24.6542 -0.232786 24.9248 -0.551541 24.9853C-0.881594 25.0491 -1.13579 24.8536 -1.27621 24.486C-1.38757 24.1936 -1.46181 23.8677 -1.51104 23.546C-1.88305 21.1216 -2.03476 18.6638 -2.17921 16.2039C-2.25669 14.8825 -2.41001 13.5685 -2.54558 12.2534C-2.61176 11.611 -2.41647 11.0605 -2.00087 10.8495C-1.58043 10.6354 -1.11239 10.8589 -0.846895 11.4115C-0.615293 11.893 -0.558803 12.4362 -0.56526 12.994Z" fill="white"/>
<path d="M22.2759 35.6282C22.1162 35.6032 21.9548 35.5906 21.7966 35.552C20.4425 35.2199 19.78 33.5946 20.4602 32.0464C21.0945 30.6018 22.0104 29.5282 23.3903 29.4006C23.6075 29.3808 23.8317 29.3954 24.0457 29.4446C25.3416 29.7422 25.9718 31.2068 25.4957 32.7933C25.0181 34.3852 23.5945 35.6345 22.2759 35.6282ZM23.6752 31.4114C23.1893 31.4188 22.7979 31.6735 22.3922 31.8982C22.0902 32.0653 21.9337 32.3483 21.8201 32.7045C21.6376 33.2748 21.8062 33.6268 22.2831 33.629C23.0152 33.6312 23.6212 33.2591 24.0756 32.5114C24.216 32.2796 24.3507 32.0048 24.2264 31.7029C24.1069 31.4125 23.864 31.423 23.6752 31.4114Z" fill="white"/>
<path d="M-2.04939 54.2367C-2.13332 54.5521 -2.21401 54.8458 -2.29068 55.1403C-2.39155 55.5278 -2.55214 55.8578 -2.80714 56.1075C-3.2066 56.4993 -3.64639 56.5546 -4.09589 56.3154C-4.35572 56.1765 -4.53891 56.2549 -4.68578 56.5222C-4.85525 56.8293 -5.01906 57.1437 -5.15947 57.4737C-5.29826 57.7987 -5.43384 57.9387 -5.62591 57.8686C-5.82441 57.7965 -5.95596 57.5364 -5.89545 57.2053C-5.72517 56.2725 -5.32894 55.5498 -4.6422 55.1362C-4.3872 54.9825 -4.12815 55.0452 -3.87235 55.1675C-3.43739 55.3732 -3.36152 55.3179 -3.25662 54.7267C-3.17029 54.2378 -3.10814 53.7395 -2.99921 53.2591C-2.89511 52.7995 -2.65302 52.4819 -2.26242 52.4464C-2.11314 52.4327 -1.95417 52.4736 -1.81053 52.5331C-1.64348 52.6032 -1.56682 52.5394 -1.48289 52.3493C-1.35297 52.0546 -1.20287 51.7694 -1.03744 51.5062C-0.76146 51.0665 -0.40316 50.8963 0.0213089 51.1C0.214983 51.193 0.302943 51.1146 0.360239 50.8817C0.411077 50.6738 0.473216 50.47 0.541001 50.2706C0.776639 49.5791 1.24872 49.2521 1.82329 49.3764C2.1138 49.4391 2.18562 49.386 2.19611 49.0015C2.21144 48.4384 2.31795 47.9161 2.53422 47.4294C2.69725 47.0628 2.9829 47.0325 3.12977 47.4065C3.5365 48.4384 3.55182 49.6313 2.76906 50.4805C2.47937 50.7951 2.14204 50.8963 1.77971 50.7783C1.54649 50.7021 1.46741 50.8127 1.39236 51.0863C1.28584 51.4771 1.14865 51.8604 0.984029 52.2146C0.746779 52.7264 0.44013 52.8735 -0.0109706 52.7327C-0.152192 52.6887 -0.210293 52.7484 -0.262747 52.8997C-0.340216 53.1243 -0.418494 53.352 -0.517753 53.561C-0.851034 54.2598 -1.29245 54.4811 -1.90656 54.2785C-1.94126 54.2661 -1.97596 54.2576 -2.04939 54.2367Z" fill="white"/>
<path d="M9.76433 52.2146C9.57549 52.1937 9.38262 52.1957 9.19702 52.1489C8.73543 52.0307 8.57887 51.4595 8.86777 50.9747C9.03804 50.6884 9.27369 50.5423 9.54159 50.4827C11.0256 50.1538 11.8843 51.264 12.0392 53.0042C12.1546 54.2985 11.6849 55.3367 10.7819 55.9425C10.1751 56.35 9.54806 56.2434 9.06305 55.6188C8.55789 54.9679 8.34162 54.1564 8.34728 53.2456C8.34969 52.8581 8.52563 52.5666 8.77821 52.4674C9.02755 52.3692 9.30192 52.4861 9.46495 52.8172C9.61746 53.1276 9.73205 53.47 9.86682 53.7961C10.1016 54.3612 10.2267 54.3871 10.5205 53.8682C10.6439 53.6498 10.7456 53.3625 10.7585 53.0993C10.7868 52.5248 10.4753 52.1654 10.0282 52.1728C9.94025 52.1739 9.85228 52.1844 9.76433 52.1905C9.76514 52.1968 9.76514 52.2053 9.76433 52.2146Z" fill="white"/>
<path d="M7.48694 43.1103C7.4821 44.3368 7.19238 45.4041 6.44593 46.2117C6.29503 46.3757 6.13606 46.5335 5.96741 46.6639C5.73741 46.8415 5.52518 46.7224 5.33958 46.5283C4.81424 45.9797 4.52371 45.2487 4.38411 44.4078C4.28567 43.8124 4.3591 43.2388 4.5326 42.68C4.82231 41.7515 5.30649 41.0058 5.8641 40.3381C6.2434 39.8849 6.80827 40.098 6.97935 40.7267C7.01566 40.8606 7.06086 40.9909 7.11169 41.1163C7.39897 41.8214 7.4934 42.3175 7.48694 43.1103ZM6.07071 41.7191C5.40574 42.8398 5.27743 43.9386 5.74146 44.7452C6.29262 43.8363 6.43707 42.5557 6.07071 41.7191Z" fill="white"/>
<path d="M-0.0420848 0.573442C-0.372946 0.993349 -0.698155 1.38819 -1.00723 1.80287C-1.17588 2.02954 -1.34777 2.20085 -1.60197 2.0943C-1.85859 1.98671 -1.9409 1.70991 -1.94251 1.40176C-1.95139 0.160846 -1.96107 -1.08112 -1.94493 -2.32203C-1.93767 -2.9028 -1.39458 -3.5337 -0.895057 -3.61204C0.389649 -3.81156 1.73003 -2.49437 1.90031 -0.849226C1.92694 -0.591223 1.91806 -0.316509 1.88255 -0.0595522C1.69614 1.29313 0.772961 1.32865 0.184676 0.805331C0.119311 0.748926 0.0604012 0.679986 -0.0420848 0.573442ZM-1.01046 0.275746C-0.980598 0.29246 -0.95074 0.309172 -0.921687 0.325886C-0.748996 0.0741503 -0.573074 -0.172363 -0.405225 -0.429321C-0.0477337 -0.976662 0.316212 -0.926524 0.56234 -0.290397C0.634161 -0.104467 0.726156 0.03968 0.899655 0.0480363C1.09979 -0.549443 0.889164 -1.40179 0.390454 -1.78618C0.0200522 -2.07135 -0.400381 -2.24891 -0.803063 -2.47768C-1.16297 -1.54072 -0.910391 -0.615249 -1.01046 0.275746Z" fill="white"/>
<path d="M35.8451 45.2882C34.554 44.954 33.4936 44.3221 32.8205 42.8952C32.3954 41.9937 32.1459 41.0026 32.0418 39.9549C31.9879 39.4054 32.1581 38.9949 32.4872 38.8392C32.8142 38.6847 33.1756 38.8497 33.4009 39.2874C33.5097 39.4984 33.5944 39.7335 33.6728 39.9684C33.7881 40.3173 33.8922 40.6724 33.9932 41.0287C34.303 42.1202 34.8396 42.9611 35.6054 43.5763C35.9774 43.875 36.3235 44.2302 36.6731 44.5737C36.8312 44.7294 36.7125 44.8988 36.6109 44.9551C36.347 45.0982 36.0678 45.1944 35.8451 45.2882Z" fill="white"/>
<path d="M42.7039 50.4672C42.6434 50.6459 42.6112 50.8557 42.5176 50.9988C41.5806 52.4298 40.5784 53.769 39.3017 54.7079C39.1323 54.8333 38.9619 54.9034 38.7868 54.7478C38.602 54.5836 38.5359 54.3268 38.6005 54.0699C38.6948 53.6959 38.7925 53.3032 38.966 52.9897C39.1896 52.5855 39.4728 52.2283 39.7601 51.8941C40.3161 51.2474 40.8882 50.6239 41.4653 50.0096C41.6072 49.8592 41.7872 49.7296 41.964 49.6818C42.3408 49.5792 42.6699 49.9617 42.7039 50.4672Z" fill="white"/>
<path d="M52.8477 5.00654C52.851 6.3279 52.6331 7.57089 52.0199 8.65199C51.8818 8.89434 51.6905 9.10846 51.4904 9.26411C51.2862 9.42287 51.099 9.30588 51.0612 9.00192C51.0272 8.73243 51.0466 8.43892 51.0895 8.16733C51.1491 7.78817 51.2523 7.42049 51.3387 7.04862C51.6598 5.66043 51.7292 4.25761 51.4937 2.83494C51.4752 2.72422 51.463 2.61035 51.4606 2.49754C51.4558 2.26775 51.4976 2.05779 51.6687 1.94289C51.852 1.81859 52.0473 1.85411 52.1772 2.0369C52.332 2.25521 52.4757 2.50904 52.5636 2.77958C52.7929 3.48673 52.8501 4.24298 52.8477 5.00654Z" fill="white"/>
<path d="M15.5448 13.5195C15.5497 14.1327 15.4932 14.7322 15.2963 15.2973C15.1373 15.7548 14.921 16.1601 14.5797 16.4202C14.2738 16.6542 13.951 16.7043 13.6509 16.4139C13.3563 16.1298 13.3006 15.7172 13.3926 15.2879C13.4604 14.9714 13.5677 14.6643 13.6856 14.3719C14.0317 13.5132 14.2117 12.6097 14.1851 11.6372C14.1721 11.1766 14.2997 10.9186 14.5531 10.8319C14.8097 10.7442 15.076 10.9228 15.2148 11.3312C15.4504 12.0258 15.5359 12.7643 15.5448 13.5195Z" fill="white"/>
<path d="M31.5645 -1.86058C32.2504 -1.86371 32.8412 -1.32995 33.0478 -0.521476C33.2383 0.227464 33.0463 1.00147 32.5515 1.47569C31.9803 2.02303 31.1182 2.0293 30.5276 1.49136C29.941 0.956552 29.7779 0.0770477 30.1145 -0.743965C30.4123 -1.46992 30.9158 -1.85745 31.5645 -1.86058ZM31.5871 -0.64891C31.2732 -0.592505 31.0353 -0.365838 31.057 -0.0911238C31.0821 0.217017 31.1909 0.468752 31.4145 0.609766C31.6267 0.743467 31.8396 0.731975 32.0408 0.565893C32.3312 0.325649 32.3562 -0.116193 32.0763 -0.372108C31.9335 -0.501629 31.7517 -0.559079 31.5871 -0.64891Z" fill="white"/>
<path d="M56.7728 7.06426C56.7674 7.62831 56.6237 8.12344 56.3161 8.52871C55.7649 9.25572 54.87 9.2035 54.4157 8.37309C54.0518 7.70875 53.9033 6.9525 54.1036 6.13881C54.4205 4.85089 55.5721 4.51141 56.2944 5.49015C56.6002 5.90378 56.7728 6.47305 56.7728 7.06426ZM55.7094 6.88252C55.6851 6.77076 55.6666 6.59839 55.6102 6.45113C55.4865 6.13045 55.2638 6.09911 55.1202 6.40097C55.0331 6.58379 54.9952 6.81776 54.9693 7.03503C54.9386 7.29512 55.1469 7.62309 55.3324 7.65653C55.4883 7.68474 55.6254 7.50297 55.677 7.19274C55.6916 7.11022 55.6949 7.02458 55.7094 6.88252Z" fill="white"/>
<path d="M29.0734 19.4117C29.1485 19.3731 29.2317 19.3418 29.3051 19.2895C29.7933 18.9427 30.2783 18.5897 30.7657 18.2408C30.9771 18.0893 31.1837 17.9222 31.4057 17.8011C31.5494 17.7227 31.7179 17.6768 31.8722 17.6872C32.1683 17.707 32.3096 18.104 32.1352 18.4163C32.052 18.5657 31.9351 18.6983 31.8115 18.7923C30.9151 19.4744 30.0128 20.1471 29.1107 20.8177C29.0099 20.8929 28.9017 20.9566 28.7911 21.0047C28.3836 21.1822 27.9606 20.9086 27.9389 20.3591C27.9084 19.5778 27.9445 18.7881 27.9994 18.0079C28.0268 17.6172 28.3165 17.3926 28.5886 17.4344C28.8662 17.4772 29.0623 17.7614 29.071 18.1656C29.0808 18.5709 29.0734 18.9762 29.0734 19.4117Z" fill="white"/>
<path d="M60.6239 61.3628C59.4854 61.3502 59.2037 60.1938 59.4878 59.1881C59.5442 58.9885 59.6476 58.8026 59.7564 58.6398C60.1123 58.108 60.5562 57.8082 61.1017 58.0265C61.6657 58.2532 61.9981 58.7943 62.0992 59.5462C62.1605 60.006 62.0345 60.407 61.7829 60.7361C61.4487 61.1717 61.0314 61.3419 60.6239 61.3628Z" fill="white"/>
<path d="M17.1092 28.986C17.0123 29.7425 16.922 30.4987 16.8146 31.2517C16.7904 31.423 16.7242 31.5944 16.6484 31.7417C16.4636 32.1031 16.1957 32.2785 15.8584 32.2169C15.5202 32.1542 15.2894 31.8878 15.212 31.469C15.1611 31.1912 15.1587 30.8851 15.1853 30.5989C15.2491 29.9127 15.3379 29.2305 15.4242 28.5485C15.5154 27.8247 15.8422 27.4172 16.2869 27.4559C16.7291 27.4944 17.0325 27.9636 17.0656 28.6665C17.0705 28.7699 17.0664 28.8744 17.0664 28.9788C17.0809 28.9808 17.0947 28.983 17.1092 28.986Z" fill="white"/>
<path d="M14.1443 22.7941C14.037 24.2282 13.5585 25.4649 12.6894 26.4238C12.4699 26.6661 12.1697 26.8008 11.8913 26.9334C11.6879 27.0307 11.4757 26.9523 11.3458 26.7027C11.2134 26.4477 11.2642 26.1846 11.3998 25.9621C11.6314 25.5829 11.8832 25.2237 12.1172 24.8464C12.3787 24.4246 12.6353 23.9983 12.8814 23.5616C13.0686 23.2295 13.2091 22.867 13.2341 22.443C13.2405 22.3332 13.2785 22.2227 13.3172 22.1212C13.4003 21.902 13.527 21.7526 13.732 21.7786C13.9466 21.8058 14.054 21.9939 14.0984 22.2403C14.1274 22.4044 14.1274 22.5777 14.1443 22.7941Z" fill="white"/>
<path d="M48.2719 28.9861C47.4664 28.9933 47.03 28.1681 47.3067 27.1549C47.389 26.8541 47.4793 26.5574 47.5755 26.2629C47.7658 25.6768 48.3727 25.3614 48.903 25.5652C49.6283 25.8451 49.9657 26.7476 49.6849 27.6574C49.4491 28.4188 48.8512 28.9809 48.2719 28.9861ZM48.3968 26.5617C48.3953 26.594 48.3944 26.6253 48.3929 26.6577C48.3638 26.7548 48.3444 26.9294 48.3041 26.9377C48.0346 26.9952 48.0418 27.2792 48.003 27.5152C47.9449 27.8779 48.0903 28.0522 48.3742 27.9843C48.6511 27.9186 48.9722 27.5143 48.9892 27.1467C48.9957 27.0056 48.9271 26.7988 48.8398 26.7246C48.7181 26.6212 48.547 26.6118 48.3968 26.5617Z" fill="white"/>
<path d="M26.1751 21.0987C26.1751 21.3254 26.2138 21.5667 26.1679 21.7776C26.0532 22.301 25.7053 22.4544 25.3383 22.5193C24.5474 22.6593 23.7387 21.5228 23.9172 20.5158C24.0269 19.8975 24.3465 19.5068 24.8184 19.3648C25.2778 19.2269 25.6311 19.4838 25.8999 19.9581C26.091 20.2965 26.1846 20.6798 26.1751 21.0987ZM25.0879 20.6067C25.0581 20.6088 25.0283 20.6109 24.9985 20.614C24.9734 20.7237 24.9097 20.8511 24.9332 20.9399C24.9695 21.0788 25.0461 21.2345 25.1397 21.3055C25.2423 21.3839 25.3052 21.247 25.2728 21.1217C25.2277 20.9431 25.1511 20.778 25.0879 20.6067Z" fill="white"/>
<path d="M26.3981 5.76463C25.7775 5.70719 25.1747 5.85552 24.5743 6.02995C24.5105 6.04876 24.4452 6.06859 24.3806 6.07591C24.174 6.09994 24.0005 6.01846 23.903 5.76777C23.81 5.52962 23.8544 5.30294 23.9835 5.10866C24.0741 4.97286 24.1862 4.8611 24.2756 4.72426C24.5573 4.29287 24.8325 3.85626 25.1094 3.41964C25.1601 3.33921 25.1997 3.24519 25.2555 3.17207C25.4555 2.91198 25.7315 2.99659 25.8389 3.33398C25.8785 3.45828 25.942 3.57422 26.0082 3.67974C26.2699 4.09754 26.5531 4.49656 26.7919 4.93422C26.8629 5.06479 26.8709 5.34056 26.8113 5.48051C26.7427 5.64034 26.5659 5.72286 26.4368 5.83985C26.424 5.81477 26.4109 5.78971 26.3981 5.76463Z" fill="white"/>
<path d="M57.4494 24.4475C57.681 24.6522 57.8998 24.8392 58.1135 25.0344C58.3404 25.2423 58.5267 25.492 58.5727 25.8671C58.6049 26.1313 58.5541 26.3632 58.3693 26.5073C58.1926 26.6451 58.0158 26.6013 57.8536 26.452C57.3847 26.0195 56.9137 25.5902 56.4511 25.1441C56.3438 25.0407 56.2414 24.8977 56.1848 24.7432C56.0647 24.4118 56.1905 24.0788 56.4648 23.8646C57.0347 23.4218 57.5996 22.9673 58.166 22.5171C58.1974 22.4921 58.2274 22.4638 58.2596 22.4429C58.4653 22.3072 58.68 22.3636 58.7849 22.582C58.8913 22.8012 58.8406 23.0676 58.6525 23.2535C58.3153 23.5879 57.9764 23.919 57.6381 24.2521C57.5817 24.3084 57.5251 24.3681 57.4494 24.4475Z" fill="white"/>
<path d="M8.61569 10.8557C8.02661 10.7941 7.58196 10.1705 7.65297 9.44665C7.71026 8.85546 7.90394 8.33423 8.23239 7.91431C8.76095 7.23955 9.44769 7.4662 9.67284 8.38018C9.89556 9.2858 9.76725 9.9543 9.23383 10.4661C9.05309 10.6395 8.8231 10.7283 8.61569 10.8557Z" fill="white"/>
<path d="M18.6419 32.035C18.608 32.761 18.4773 33.4356 18.2328 34.0728C18.2134 34.1239 18.1892 34.1721 18.165 34.2191C17.9673 34.6013 17.6784 34.7853 17.4065 34.7006C17.1208 34.6118 16.915 34.2755 16.9086 33.7981C16.9037 33.4796 16.9489 33.1579 16.9868 32.8413C17.032 32.4673 17.1014 32.0986 17.1474 31.7248C17.2225 31.1179 17.4823 30.7668 17.8713 30.77C18.2538 30.772 18.5467 31.1408 18.6169 31.7144C18.6314 31.8239 18.6347 31.9388 18.6419 32.035Z" fill="white"/>
<path d="M31.9867 49.9541C32.0102 49.6626 32.0143 49.3661 32.0618 49.0818C32.1369 48.6264 32.4153 48.3528 32.734 48.3778C33.0447 48.402 33.2924 48.6995 33.3255 49.1613C33.3845 49.9813 33.4191 50.8054 33.462 51.6274C33.4659 51.7017 33.4572 51.7789 33.4474 51.853C33.3893 52.2938 33.1642 52.5863 32.8616 52.6166C32.5468 52.648 32.2603 52.4035 32.1885 51.9574C32.1047 51.4404 32.0716 50.9089 32.0207 50.3834C32.0069 50.2423 32.0093 50.0993 32.0045 49.9571C31.998 49.9562 31.9924 49.9552 31.9867 49.9541Z" fill="white"/>
<path d="M63.288 4.49658C63.5375 4.51017 63.719 4.65325 63.7787 4.9029C63.8457 5.1818 63.723 5.55783 63.4931 5.72392C63.3664 5.81479 63.2218 5.86285 63.0871 5.93491C62.3245 6.34646 61.5628 6.76011 60.8003 7.17061C60.6993 7.22492 60.5976 7.28341 60.4912 7.31476C60.2417 7.38788 60.0038 7.23328 59.9084 6.95127C59.8157 6.67759 59.8795 6.36423 60.0828 6.16994C60.1755 6.08115 60.2828 6.01116 60.3902 5.95371C61.2084 5.51814 62.0267 5.08571 62.8483 4.65952C62.9887 4.5864 63.1413 4.54985 63.288 4.49658Z" fill="white"/>
<path d="M11.9938 43.8978C11.9277 43.8645 11.7986 43.8227 11.6872 43.7412C10.7519 43.0538 10.0289 42.0731 9.41395 40.9481C9.24287 40.6346 9.27676 40.2807 9.47366 40.0789C9.67056 39.8773 9.9409 39.9202 10.1354 40.2199C10.7559 41.1769 11.4709 41.9947 12.265 42.7007C12.5071 42.916 12.5886 43.199 12.5103 43.48C12.4361 43.7526 12.2779 43.8812 11.9938 43.8978Z" fill="white"/>
<path d="M46.1154 13.483C46.091 14.3416 45.9547 15.0864 45.7353 15.8061C45.464 16.6939 44.937 17.212 44.2511 17.4857C43.955 17.6048 43.7863 17.3969 43.8767 17.0083C43.9172 16.8349 44.014 16.6803 44.0987 16.5289C44.1494 16.438 44.218 16.3586 44.2898 16.2949C45.0541 15.616 45.2712 14.5944 45.3502 13.484C45.3615 13.3242 45.3672 13.1602 45.3963 13.0056C45.4381 12.7831 45.5505 12.6327 45.7359 12.6306C45.9225 12.6285 46.0387 12.7748 46.0757 13.0014C46.1064 13.1843 46.1073 13.3754 46.1154 13.483Z" fill="white"/>
<path d="M22.5404 2.30205C21.9803 2.30936 21.6786 1.67427 21.9046 1.12275C21.9416 1.03188 21.986 0.925335 22.0498 0.878329C22.6001 0.474091 23.1465 0.0573169 23.7146 -0.303052C23.9502 -0.452422 24.2029 -0.296785 24.3359 -0.0513155C24.465 0.187885 24.462 0.488715 24.3126 0.772832C24.2432 0.904443 24.1681 1.0465 24.0697 1.13529C23.6855 1.47999 23.2967 1.81633 22.8987 2.13387C22.7721 2.23311 22.6147 2.26861 22.5404 2.30205Z" fill="white"/>
<path d="M17.4412 63.1257C17.4307 64.0711 17.2338 64.6695 16.8045 65.1271C16.5987 65.3465 16.359 65.4519 16.0903 65.4238C15.8789 65.4018 15.7062 65.2869 15.6198 65.0259C15.5375 64.7751 15.5811 64.5328 15.7183 64.3384C15.8409 64.1651 15.9846 64.0158 16.1226 63.8602C16.4704 63.4672 16.5567 63.0473 16.4042 62.4844C16.2985 62.0947 16.3598 61.8043 16.5753 61.6728C16.8045 61.5329 17.0821 61.6635 17.1983 62.0436C17.3258 62.4593 17.3935 62.9065 17.4412 63.1257Z" fill="white"/>
<path d="M1.79346 6.77075C2.24618 6.77807 2.49876 7.19692 2.36641 7.6137C2.29298 7.84663 2.15902 8.09523 1.99843 8.22579C1.42225 8.69271 0.828317 9.12412 0.230348 9.54298C0.00439388 9.70176 -0.219947 9.60669 -0.338571 9.3821C-0.455582 9.16067 -0.427337 8.87028 -0.256259 8.62899C-0.187666 8.53186 -0.10939 8.44307 -0.0278848 8.36368C0.41918 7.93333 0.863016 7.49776 1.31976 7.08516C1.48923 6.93267 1.69017 6.83865 1.79346 6.77075Z" fill="white"/>
<path d="M16.3895 53.0221C16.4154 52.8612 16.4267 52.7182 16.4622 52.5854C16.6147 52.0109 17.0634 51.8762 17.4031 52.2983C17.4297 52.3307 17.458 52.3629 17.4765 52.4036C17.8009 53.1203 17.9559 53.9048 17.9938 54.7246C18.0067 55.0078 17.8647 55.2229 17.6573 55.3348C17.4483 55.4476 17.2562 55.3901 17.0819 55.2124C17.0537 55.1833 17.0238 55.1519 17.0036 55.1132C16.6712 54.473 16.4936 53.7585 16.3895 53.0221Z" fill="white"/>
<path d="M18.0801 6.09603C17.9986 6.24225 17.934 6.46683 17.8138 6.54205C17.7016 6.61203 17.5193 6.55665 17.3877 6.49084C17.2796 6.43653 17.1819 6.30178 17.1133 6.17226C16.8317 5.64374 16.5404 5.12042 16.2959 4.56471C16.107 4.13541 16.2216 3.67789 16.5065 3.47629C16.7986 3.26842 17.1553 3.41049 17.3441 3.85233C17.5491 4.33178 17.7347 4.82689 17.909 5.32722C17.9865 5.54658 18.0155 5.79518 18.0801 6.09603Z" fill="white"/>
<path d="M3.4635 2.24677C3.58453 2.55701 3.71203 2.86515 3.82662 3.1806C3.96461 3.55872 3.94282 3.81359 3.77579 3.95147C3.60471 4.09249 3.37634 4.00474 3.19637 3.67571C2.96397 3.25059 2.74689 2.81081 2.54031 2.3648C2.40312 2.0692 2.50883 1.73495 2.78562 1.57722C3.05355 1.42472 3.33195 1.30564 3.60552 1.16985C3.81049 1.06748 4.01305 0.955716 4.21963 0.861708C4.44962 0.758298 4.62795 0.836639 4.6909 1.04868C4.75789 1.27221 4.67636 1.46127 4.45043 1.60124C4.14055 1.79344 3.82984 1.98564 3.51997 2.17887C3.50222 2.19036 3.48932 2.21544 3.4635 2.24677Z" fill="white"/>
<path d="M36.9991 26.1468C36.9377 26.1292 36.82 26.1113 36.7118 26.0591C36.2527 25.8388 35.7942 25.6174 35.3414 25.3781C35.0325 25.214 34.9139 24.9269 34.9938 24.6093C35.0737 24.2897 35.3366 24.0901 35.6377 24.2124C36.1734 24.4286 36.6965 24.697 37.2233 24.9478C37.2767 24.9728 37.3235 25.0261 37.3685 25.0732C37.5679 25.2819 37.6365 25.5453 37.5599 25.797C37.4889 26.0268 37.2969 26.1616 36.9991 26.1468Z" fill="white"/>
<path d="M47.3738 35.6322C46.8096 35.6575 46.3675 35.0693 46.4924 34.4384C46.6256 33.7669 47.2582 33.4262 47.7256 33.7595C48.0434 33.9861 48.2679 34.2798 48.2542 34.78C48.2413 35.2552 48.0008 35.5645 47.6303 35.6042C47.5504 35.6113 47.4698 35.6209 47.3738 35.6322Z" fill="white"/>
<path d="M52.1678 64.8484C51.7329 64.8484 51.385 64.3982 51.3859 63.8372C51.3865 63.2754 51.7335 62.8271 52.1687 62.8271C52.6036 62.8271 52.9513 63.2773 52.9506 63.8383C52.9489 64.4004 52.6019 64.8484 52.1678 64.8484Z" fill="white"/>
<path d="M43.6301 3.6371C43.6616 2.95711 43.8884 2.54659 44.3121 2.40453C44.6194 2.30113 44.8567 2.47034 44.9664 2.861C45.2126 3.73425 44.8164 4.18445 44.2966 4.41215C43.9215 4.57615 43.605 4.18131 43.6301 3.6371Z" fill="white"/>
<path d="M42.9879 21.9646C42.896 21.95 42.8087 21.9677 42.7547 21.9217C42.6522 21.8351 42.5118 21.7264 42.4924 21.599C42.4698 21.4559 42.541 21.2616 42.6135 21.1289C42.6653 21.0328 42.7822 20.9722 42.8782 20.9451C43.2761 20.8291 43.6747 20.7111 44.0783 20.6328C44.3454 20.5805 44.5147 20.7247 44.5552 20.9534C44.597 21.1937 44.447 21.5258 44.2291 21.6125C43.9507 21.7233 43.6658 21.809 43.381 21.8926C43.2469 21.9322 43.1074 21.9437 42.9879 21.9646Z" fill="white"/>
<path d="M36.0096 64.5505C35.9965 64.0764 36.2007 63.7024 36.517 63.6188C36.886 63.5217 37.1555 63.8561 37.2417 64.5151C37.3063 65.007 37.1087 65.4071 36.7704 65.4709C36.2928 65.5606 36.0289 65.241 36.0096 64.5505Z" fill="white"/>
<path d="M0.983279 11.2341C0.810586 11.2247 0.654839 11.1296 0.577369 10.8956C0.493444 10.6439 0.513619 10.3629 0.688733 10.2261C1.01717 9.97018 1.36256 9.72574 1.72489 9.57639C2.03154 9.45 2.25426 9.83753 2.13967 10.2177C2.01701 10.6282 1.34319 11.2289 0.983279 11.2341Z" fill="white"/>
<path d="M36.2188 26.5144C36.4981 26.5207 36.6773 26.6335 36.7113 26.8455C36.7443 27.0534 36.6126 27.2833 36.3536 27.3741C36.0366 27.487 35.7121 27.5684 35.3877 27.6364C35.1683 27.6823 35.002 27.533 34.96 27.3042C34.914 27.0514 35.0166 26.7861 35.244 26.7162C35.5636 26.6189 35.8936 26.5793 36.2188 26.5144Z" fill="white"/>
<path d="M1.52443 46.1132C1.52443 46.3305 1.53734 46.5488 1.5204 46.763C1.50506 46.9594 1.4397 47.1348 1.25651 47.1475C1.07656 47.1599 0.984562 47.0075 0.956317 46.81C0.919195 46.5521 0.908704 46.2867 0.890144 46.0244C0.877233 45.8459 0.87239 45.6672 0.858671 45.4887C0.840919 45.2464 0.913548 45.0812 1.10157 45.027C1.26539 44.9789 1.44615 45.1199 1.48085 45.3539C1.51717 45.6025 1.51878 45.8594 1.53492 46.1132C1.53169 46.1121 1.52846 46.1121 1.52443 46.1132Z" fill="white"/>
<path d="M28.6919 59.0365C28.6951 59.3572 28.561 59.611 28.3473 59.6904C28.144 59.7655 27.9365 59.6465 27.8065 59.3791C27.7985 59.3635 27.7928 59.3456 27.7848 59.3291C27.6548 59.0428 27.583 58.7483 27.7615 58.4546C27.8986 58.2291 28.0867 58.1716 28.2957 58.2552C28.5297 58.3501 28.6877 58.6688 28.6919 59.0365Z" fill="white"/>
<path d="M6.34002 38.7849C6.06079 38.7838 5.84857 38.5091 5.8526 38.1551C5.85743 37.7561 6.11406 37.4228 6.41344 37.428C6.70073 37.4333 6.93315 37.752 6.93071 38.1373C6.9283 38.4934 6.662 38.7849 6.34002 38.7849Z" fill="white"/>
<path d="M37.4779 14.6768C37.2489 14.6883 37.1157 14.4648 37.1762 14.2099C37.2189 14.0313 37.2972 13.8683 37.3593 13.697C37.4555 13.4327 37.5506 13.1674 37.6457 12.9021C37.7169 12.7026 37.833 12.6055 37.9984 12.6817C38.1477 12.7507 38.1993 12.9303 38.1462 13.0985C37.9903 13.5853 37.8168 14.0626 37.6377 14.5358C37.6079 14.6141 37.5119 14.6486 37.4779 14.6768Z" fill="white"/>
<path d="M3.99103 12.8438C4.25894 12.8406 4.46552 13.0882 4.46472 13.4099C4.46391 13.7358 4.24281 14.0105 3.98054 14.0116C3.73118 14.0137 3.5149 13.7306 3.50763 13.3922C3.50038 13.0809 3.70616 12.8469 3.99103 12.8438Z" fill="white"/>
<path d="M59.3675 8.90677C59.6072 8.90364 59.7807 9.10835 59.787 9.40293C59.7926 9.69434 59.6128 9.9367 59.3908 9.93565C59.1585 9.93461 58.9341 9.65362 58.9308 9.35904C58.9269 9.06971 59.081 8.91093 59.3675 8.90677Z" fill="white"/>
<path d="M24.2932 11.541C24.6646 11.5546 25.0784 11.7071 25.3979 12.1542C25.6862 12.5584 25.7249 13.1016 25.5077 13.5131C25.3908 13.7346 25.2399 13.791 25.0333 13.7471C24.3256 13.5946 23.6355 13.7095 22.9714 14.0563C22.8948 14.096 22.8262 14.1848 22.7713 14.2694C22.6509 14.4553 22.5615 14.401 22.484 14.2255C22.3421 13.9017 22.342 13.5528 22.4074 13.2039C22.5791 12.2827 23.3813 11.5473 24.2932 11.541Z" fill="white"/>
</g>
<path d="M19.9107 104.382H-2.83008V77.4579C-2.83008 64.9367 3.90553 59.5207 8.57779 56.5266C11.6508 56.0897 19.1844 57.4944 19.9107 69.268C20.6452 81.1509 19.9107 104.382 19.9107 104.382Z" fill="#182D51" stroke="#0A0A0A" stroke-linecap="round" stroke-linejoin="round"/>
<path d="M43.9481 21.5882C43.9481 24.2228 43.8162 26.8535 43.5833 29.2866C42.4091 28.7818 41.1665 28.4071 40.8017 28.3035C40.5411 27.6877 40.2903 27.1078 40.0559 26.5879C39.8164 26.0494 39.595 25.5768 39.4028 25.1906C39.0721 24.5277 38.7352 24.0758 38.4095 23.7933C37.468 22.9741 36.6147 23.5542 36.2566 24.4957C36.1523 24.7707 36.0903 25.0739 36.0789 25.3846C36.0692 25.6577 36.1001 25.9344 36.1782 26.1983C36.6229 27.7029 38.3311 31.9023 38.8166 33.0848C37.8296 32.8571 36.7499 32.7722 35.9779 32.7722C34.3462 32.7722 34.1833 33.8099 34.3462 34.9417C34.509 36.0734 35.198 36.2617 36.3624 36.8268C37.5268 37.3937 37.8851 37.3937 38.644 37.9586C38.994 38.2203 39.2709 39.2693 39.4664 40.3201C39.0869 40.5007 38.6749 40.6553 38.2304 40.7757C37.6017 40.1015 36.9031 39.5066 36.3624 39.4669C35.3151 39.3897 33.7795 39.9435 33.3561 40.9189C33.2616 41.1373 33.2242 41.3785 33.2584 41.6364C33.4489 43.0507 33.6019 43.8189 34.5904 43.8999C35.3495 43.9622 35.8184 43.9226 35.996 43.9019C36.2712 44.3349 36.5513 44.836 36.8363 45.3745C37.1326 45.9338 37.4356 46.5326 37.7434 47.1295C37.4647 47.2218 37.2727 47.4138 37.1391 47.6511C36.8541 48.154 36.8363 48.8584 36.8363 49.2087V52.7792L35.452 54.8864L32.2535 52.6925V49.7679C32.2535 48.9505 32.5141 48.3066 31.7698 47.8773C31.0256 47.4461 27.0846 45.9414 25.6337 45.2106C24.715 44.7454 23.8846 44.2315 23.3813 43.7303V29.7141C21.9693 29.9758 20.6877 28.8083 20.7887 26.138C20.8392 24.7707 21.2105 23.8969 21.7332 23.4656C21.9839 23.2567 22.2706 23.1493 22.5736 23.1417C23.0458 23.1247 23.5572 23.3453 24.0376 23.7765C24.0376 23.7765 24.8437 20.4037 27.1692 20.1344L27.179 15.8803C27.179 15.8803 29.3613 16.3661 30.6022 15.9989C32.2405 15.5168 34.8087 15.3925 36.3624 15.7729C37.9175 16.1515 39.7317 15.901 40.4841 15.7974C42.3814 15.5338 43.3325 16.3737 43.383 16.4189H43.3845C43.4546 16.6957 43.5164 16.9725 43.5717 17.2531C43.8504 18.6617 43.9481 20.1419 43.9481 21.5882Z" fill="#7F5137" stroke="#0A0A0A" stroke-linecap="round" stroke-linejoin="round"/>
<path d="M44.0456 26.4561C43.9707 26.4561 43.8893 26.4579 43.8031 26.4598C42.8096 26.4899 41.1632 26.6764 40.0558 26.5878C39.7674 26.5652 39.5151 26.5238 39.3214 26.4561C38.4321 26.1492 38.4484 24.9778 38.4093 23.7932C38.406 23.6351 38.3995 23.4769 38.3914 23.3186C38.3133 21.9872 38.704 21.0382 39.7073 21.0024C41.3846 20.9422 42.9807 20.8743 43.9431 21.0796C44.3144 21.1587 44.5911 21.2755 44.7426 21.4506C45.2834 22.0778 45.0668 26.4561 44.0456 26.4561Z" fill="white" stroke="#0A0A0A" stroke-linecap="round" stroke-linejoin="round"/>
<path d="M61.2592 83.6592C60.0362 78.9815 48.7049 34.5858 47.7212 32.4899C46.9885 30.9249 46.2751 30.5163 44.6222 29.7498C44.2915 29.5972 43.9382 29.4392 43.5832 29.2866C42.409 28.7818 41.1664 28.4071 40.8016 28.3035C40.541 27.6877 40.2902 27.1078 40.0558 26.5879C39.8163 26.0494 39.5949 25.5768 39.4027 25.1906C39.0721 24.5277 38.7351 24.0758 38.4092 23.7933C37.4679 22.9741 36.6146 23.5542 36.2563 24.4957C36.2123 24.814 36.1537 25.1153 36.0789 25.3846C36.0691 25.6578 36.1 25.9344 36.1781 26.1983C36.6229 27.7029 38.331 31.9023 38.8165 33.0848C37.8295 32.8571 36.7498 32.7722 35.9779 32.7722C34.3461 32.7722 34.1832 33.8099 34.3461 34.9417C34.5089 36.0734 35.1979 36.2617 36.3623 36.8268C37.5267 37.3937 37.885 37.3937 38.6439 37.9586C38.9939 38.2203 39.2708 39.2693 39.4663 40.3201C39.6927 41.5422 39.8098 42.7682 39.8098 42.7682C39.8098 42.7682 39.0869 41.6985 38.2303 40.7757C37.6016 40.1015 36.9028 39.5066 36.3623 39.467C35.315 39.3897 33.7794 39.9435 33.356 40.9189C33.2616 41.1373 33.2241 41.3785 33.2583 41.6364C33.4488 43.0507 33.6018 43.819 34.5903 43.8999C35.3494 43.9622 35.8183 43.9226 35.9957 43.9019C36.2711 44.3349 36.5512 44.8358 36.8362 45.3745C37.1325 45.9338 37.4355 46.5326 37.7433 47.1295C37.9534 47.5344 38.1667 47.9393 38.3816 48.3329C38.6356 48.7962 38.911 49.3517 39.1894 49.9582C40.3862 52.5569 40.6046 53.2518 40.6551 54.2216C40.7169 55.4173 43.9691 93.6928 44.4594 96.994C44.9479 100.295 45.8452 103.378 47.7212 104.382H63.0538C64.5212 102.653 62.4823 88.3371 61.2592 83.6592ZM43.0098 33.7159C42.9105 33.4673 42.8095 33.213 42.7085 32.9588L43.1043 33.132L44.8647 33.9079L45.0293 38.9021C45.0293 38.9021 44.132 36.5462 43.0098 33.7159Z" fill="#7F5137" stroke="#0A0A0A" stroke-linecap="round" stroke-linejoin="round"/>
<path d="M36.2565 24.4956C36.2125 24.8138 36.1538 25.1151 36.0789 25.3844C35.908 26.0096 35.6555 26.4484 35.325 26.4484C34.0905 26.4484 31.4099 26.8176 30.3498 26.4484C29.2897 26.0795 29.4525 24.5446 29.3711 23.1435C29.2897 21.7424 29.7015 20.7425 30.7586 20.7048C33.2045 20.6144 35.4879 20.5165 36.0595 21.1756C36.3786 21.5447 36.447 23.1529 36.2565 24.4956Z" fill="white" stroke="#0A0A0A" stroke-linecap="round" stroke-linejoin="round"/>
<path d="M34.6719 42.4856C35.1018 42.6626 35.5433 43.1861 35.9961 43.9019L34.6719 42.4856Z" fill="#7F5137"/>
<path d="M34.6719 42.4856C35.1018 42.6626 35.5433 43.1861 35.9961 43.9019" stroke="#0A0A0A" stroke-linecap="round" stroke-linejoin="round"/>
<path d="M42.2412 37.2654C42.6483 38.4311 42.992 39.4612 42.992 39.4612L42.2412 37.2654Z" fill="#7F5137"/>
<path d="M42.2412 37.2654C42.6483 38.4311 42.992 39.4612 42.992 39.4612" stroke="#0A0A0A" stroke-linecap="round" stroke-linejoin="round"/>
<path d="M36.2564 24.4958C36.2125 24.8141 36.1537 25.1154 36.0788 25.3847C36.0903 25.074 36.1522 24.7708 36.2564 24.4958Z" fill="#7F5137" stroke="#0A0A0A" stroke-linecap="round" stroke-linejoin="round"/>
<path d="M8.57772 56.5266C8.54842 56.5303 8.52073 56.534 8.49304 56.5379L8.57772 56.5266Z" fill="#7F5137"/>
<path d="M8.57772 56.5266C8.54842 56.5303 8.52073 56.534 8.49304 56.5379" stroke="#0A0A0A" stroke-linecap="round" stroke-linejoin="round"/>
<path d="M24.3844 104.382H19.9107C19.9107 104.382 20.6452 81.1506 19.9107 69.2679C19.1844 57.4943 11.6508 56.0896 8.57776 56.5265C8.85786 56.3456 9.12984 56.1762 9.39365 56.0123C10.7649 55.1629 12.5416 54.197 14.3656 53.2007C17.3018 53.2366 23.0913 56.5698 23.9072 66.4546C24.7231 76.341 24.3844 104.382 24.3844 104.382Z" fill="white" stroke="#0A0A0A" stroke-linecap="round" stroke-linejoin="round"/>
<path d="M24.3844 104.382C24.3844 104.382 24.7231 76.3412 23.9072 66.4547C23.0913 56.57 17.3019 53.2367 14.3656 53.2008C17.1015 51.7057 19.9466 50.1408 21.6907 48.7961V42.4856C21.6907 40.5856 22.6923 39.8492 23.3811 39.7231V43.7303C23.8844 44.2314 24.7148 44.7454 25.6335 45.2106C27.0844 45.9412 31.0256 47.4458 31.7696 47.8773C32.5139 48.3065 32.2533 48.9505 32.2533 49.7679V52.6925L35.4518 54.8864L36.8361 52.7791V49.2086C36.8361 48.8584 36.8539 48.1539 37.1389 47.6511C37.2725 47.4138 37.4648 47.2218 37.7432 47.1295C37.9533 47.5344 38.1666 47.9393 38.3817 48.3329C38.6357 48.7961 38.7415 48.9901 39.0199 49.5966C40.217 52.1953 40.6045 53.2517 40.655 54.2215C40.7168 55.4173 43.969 93.6928 44.4593 96.994C44.9478 100.295 45.8451 103.378 47.7211 104.382H24.3844Z" fill="#182D51" stroke="#0A0A0A" stroke-linecap="round" stroke-linejoin="round"/>
<path d="M22.5833 25.1887C22.5833 25.1887 23.9301 25.9889 23.3813 28.021" stroke="#0A0A0A" stroke-linecap="round" stroke-linejoin="round"/>
<path d="M23.3813 26.2659C23.3813 26.2659 22.4139 26.3599 22.1744 27.1904" stroke="#0A0A0A" stroke-linecap="round" stroke-linejoin="round"/>
<path d="M22.5833 25.1887C22.5833 25.1887 23.9301 25.9889 23.3813 28.021" stroke="#0A0A0A" stroke-linecap="round" stroke-linejoin="round"/>
<path d="M23.3813 26.2659C23.3813 26.2659 22.4139 26.3599 22.1744 27.1904" stroke="#0A0A0A" stroke-linecap="round" stroke-linejoin="round"/>
<path d="M24.3845 29.2922C24.0539 29.5106 23.7134 29.6519 23.3812 29.7141" stroke="#0A0A0A" stroke-linecap="round" stroke-linejoin="round"/>
<path d="M24.3843 24.1303C24.2719 24.0004 24.1563 23.8817 24.0375 23.7764" stroke="#0A0A0A" stroke-linecap="round" stroke-linejoin="round"/>
<path d="M27.4769 37.1978C28.8791 39.049 30.6867 40.435 33.3558 40.9189" stroke="#0A0A0A" stroke-linecap="round" stroke-linejoin="round"/>
<path d="M39.8099 42.7682C39.8099 42.7682 39.0867 41.6985 38.2301 40.7757C38.6746 40.6553 39.0867 40.5007 39.4661 40.3201C39.6925 41.5422 39.8099 42.7682 39.8099 42.7682Z" fill="#7F5137" stroke="#0A0A0A" stroke-linecap="round" stroke-linejoin="round"/>
<path d="M43.5717 17.2531C43.5162 16.9725 43.4544 16.6957 43.3845 16.4207H43.3828C43.3323 16.3736 42.3812 15.5337 40.4841 15.7974C39.7315 15.9009 37.9175 16.1514 36.3622 15.7729C34.8085 15.3925 32.2405 15.5168 30.6022 15.9989C29.3611 16.3661 27.1788 15.8802 27.1788 15.8802L27.1692 20.1343C24.8437 20.4036 24.0374 23.7764 24.0374 23.7764C23.5572 23.3452 23.0456 23.1247 22.5734 23.1417C22.2704 23.1493 21.9839 23.2566 21.7331 23.4656C21.054 22.735 20.2577 21.2322 20.7837 19.6635C21.3081 18.093 21.7559 17.9706 21.9741 16.6071C22.194 15.2437 21.8357 12.2514 22.5832 11.999C23.3323 11.7448 25.0407 9.93884 25.6531 9.2722C26.2669 8.60557 28.0665 7.30618 29.094 7.9295C30.12 8.55472 33.8868 7.79393 34.6311 7.28735C35.3769 6.78077 38.3116 7.18754 39.2739 8.45302C40.2381 9.71852 41.2884 9.76935 42.3845 9.9219C43.4788 10.0744 44.311 11.694 44.4869 13.2137C44.6613 14.7334 44.1042 16.9367 43.5717 17.2531Z" fill="#0A0A0A" stroke="#0A0A0A" stroke-linecap="round" stroke-linejoin="round"/>
<path d="M21.6908 49.2557V48.7961" stroke="#0A0A0A" stroke-linecap="round" stroke-linejoin="round"/>
<path d="M23.3813 43.7303C23.0898 43.4403 22.9091 43.156 22.8812 42.8867" stroke="#0A0A0A" stroke-linecap="round" stroke-linejoin="round"/>
<path d="M29.2129 23.1379H22.6091" stroke="#0A0A0A" stroke-linecap="round" stroke-linejoin="round"/>
<path d="M42.9921 39.4593C42.9921 39.4593 41.7691 35.7891 41.1975 34.4691C40.6258 33.149 37.6098 32.7722 35.978 32.7722C34.3462 32.7722 34.1834 33.8099 34.3462 34.9417C34.509 36.0734 35.1978 36.2617 36.3622 36.8286C37.5266 37.3955 37.8849 37.3937 38.6438 37.9604C39.4029 38.5272 39.8099 42.7702 39.8099 42.7702C39.8099 42.7702 37.6439 39.563 36.3622 39.4689C35.0807 39.3747 33.0662 40.2241 33.2584 41.6382C33.4504 43.0525 33.6019 43.8209 34.592 43.9019C35.5822 43.9829 36.079 43.8923 36.079 43.8923" stroke="#0A0A0A" stroke-linecap="round" stroke-linejoin="round"/>
<path d="M40.3864 27.3335C41.4955 29.8815 42.8976 33.4104 43.8698 35.8982L40.3864 27.3335Z" fill="#7F5137"/>
<path d="M40.3864 27.3335C41.4955 29.8815 42.8976 33.4104 43.8698 35.8982" stroke="#0A0A0A" stroke-linecap="round" stroke-linejoin="round"/>
</g>
</svg>
