<svg width="202" height="56" viewBox="0 0 202 56" fill="none" xmlns="http://www.w3.org/2000/svg">
<rect width="56" height="56" fill="white"/>
<path opacity="0.4" d="M27 35.5H37" stroke="#E15341" stroke-width="2" stroke-linecap="round" stroke-linejoin="round"/>
<path opacity="0.4" d="M27 28.5H37" stroke="#E15341" stroke-width="2" stroke-linecap="round" stroke-linejoin="round"/>
<path opacity="0.4" d="M27 21.5H37" stroke="#E15341" stroke-width="2" stroke-linecap="round" stroke-linejoin="round"/>
<path d="M19 21.5L20 22.5L23 19.5" stroke="#E15341" stroke-width="2" stroke-linecap="round" stroke-linejoin="round"/>
<path d="M19 28.5L20 29.5L23 26.5" stroke="#E15341" stroke-width="2" stroke-linecap="round" stroke-linejoin="round"/>
<path d="M19 35.5L20 36.5L23 33.5" stroke="#E15341" stroke-width="2" stroke-linecap="round" stroke-linejoin="round"/>
<path d="M76.888 19.32H71.284L72.448 17.748V34.5H69.28V17.748L70.504 19.32H64.852V16.8H76.888V19.32ZM81.8817 34.764C80.9297 34.764 80.0937 34.616 79.3737 34.32C78.6537 34.016 78.0897 33.58 77.6817 33.012C77.2737 32.444 77.0697 31.76 77.0697 30.96C77.0697 30.088 77.3057 29.372 77.7777 28.812C78.2577 28.244 78.9017 27.808 79.7097 27.504C80.5177 27.192 81.4137 26.992 82.3977 26.904C83.8537 26.76 84.8697 26.624 85.4457 26.496C86.0297 26.36 86.3217 26.144 86.3217 25.848C86.3217 25.84 86.3217 25.836 86.3217 25.836C86.3217 25.828 86.3217 25.824 86.3217 25.824C86.3217 25.264 86.0697 24.832 85.5657 24.528C85.0617 24.224 84.3497 24.072 83.4297 24.072C82.4617 24.072 81.7177 24.244 81.1977 24.588C80.6857 24.924 80.4297 25.46 80.4297 26.196H77.3097C77.3097 25.196 77.5737 24.352 78.1017 23.664C78.6377 22.968 79.3697 22.44 80.2977 22.08C81.2257 21.72 82.2777 21.54 83.4537 21.54C84.5497 21.54 85.5537 21.704 86.4657 22.032C87.3777 22.36 88.1097 22.856 88.6617 23.52C89.2137 24.184 89.4897 25.012 89.4897 26.004C89.4897 26.172 89.4897 26.34 89.4897 26.508C89.4897 26.676 89.4897 26.844 89.4897 27.012V31.812C89.4897 32.116 89.4977 32.416 89.5137 32.712C89.5377 33 89.5817 33.26 89.6457 33.492C89.7257 33.748 89.8217 33.964 89.9337 34.14C90.0457 34.316 90.1337 34.436 90.1977 34.5H87.0777C87.0217 34.444 86.9417 34.336 86.8377 34.176C86.7417 34.008 86.6537 33.816 86.5737 33.6C86.4937 33.36 86.4337 33.104 86.3937 32.832C86.3537 32.552 86.3337 32.244 86.3337 31.908L86.9577 32.34C86.7177 32.828 86.3497 33.256 85.8537 33.624C85.3657 33.984 84.7817 34.264 84.1017 34.464C83.4217 34.664 82.6817 34.764 81.8817 34.764ZM82.6497 32.28C83.3057 32.28 83.9137 32.168 84.4737 31.944C85.0337 31.72 85.4857 31.376 85.8297 30.912C86.1737 30.44 86.3457 29.836 86.3457 29.1V27.396L87.1137 28.26C86.6017 28.452 85.9857 28.612 85.2657 28.74C84.5457 28.86 83.8177 28.956 83.0817 29.028C82.1377 29.116 81.4257 29.28 80.9457 29.52C80.4737 29.76 80.2377 30.152 80.2377 30.696C80.2377 31.224 80.4377 31.62 80.8377 31.884C81.2377 32.148 81.8417 32.28 82.6497 32.28ZM97.5679 34.764C96.8079 34.764 96.0839 34.68 95.3959 34.512C94.7159 34.344 94.1079 34.092 93.5719 33.756C93.0439 33.42 92.6239 33.004 92.3119 32.508C92.0079 32.004 91.8559 31.424 91.8559 30.768C91.8559 30.72 91.8559 30.672 91.8559 30.624C91.8559 30.576 91.8559 30.532 91.8559 30.492H94.9999C94.9999 30.532 94.9999 30.568 94.9999 30.6C94.9999 30.624 94.9999 30.66 94.9999 30.708C94.9999 31.228 95.2359 31.62 95.7079 31.884C96.1879 32.14 96.8399 32.268 97.6639 32.268C98.1119 32.268 98.5319 32.22 98.9239 32.124C99.3239 32.028 99.6439 31.88 99.8839 31.68C100.132 31.48 100.256 31.224 100.256 30.912C100.256 30.408 99.9959 30.048 99.4759 29.832C98.9639 29.616 98.1559 29.42 97.0519 29.244C96.4439 29.14 95.8439 29 95.2519 28.824C94.6599 28.648 94.1199 28.412 93.6319 28.116C93.1519 27.82 92.7639 27.452 92.4679 27.012C92.1799 26.572 92.0359 26.036 92.0359 25.404C92.0359 24.564 92.2839 23.86 92.7799 23.292C93.2839 22.716 93.9559 22.28 94.7959 21.984C95.6439 21.688 96.5759 21.54 97.5919 21.54C98.5679 21.54 99.4759 21.7 100.316 22.02C101.156 22.34 101.832 22.8 102.344 23.4C102.864 24 103.124 24.724 103.124 25.572C103.124 25.604 103.124 25.64 103.124 25.68C103.124 25.712 103.124 25.74 103.124 25.764H100.004C100.004 25.74 100.004 25.716 100.004 25.692C100.004 25.668 100.004 25.64 100.004 25.608C100.004 25.24 99.8879 24.94 99.6559 24.708C99.4239 24.476 99.1239 24.304 98.7559 24.192C98.3879 24.08 97.9999 24.024 97.5919 24.024C97.2319 24.024 96.8599 24.064 96.4759 24.144C96.0919 24.216 95.7719 24.348 95.5159 24.54C95.2599 24.724 95.1319 24.984 95.1319 25.32C95.1319 25.64 95.2639 25.9 95.5279 26.1C95.7919 26.3 96.1599 26.468 96.6319 26.604C97.1039 26.732 97.6479 26.848 98.2639 26.952C98.8479 27.048 99.4359 27.18 100.028 27.348C100.628 27.516 101.176 27.74 101.672 28.02C102.168 28.3 102.568 28.668 102.872 29.124C103.184 29.572 103.34 30.128 103.34 30.792C103.34 31.496 103.18 32.096 102.86 32.592C102.54 33.088 102.104 33.5 101.552 33.828C101.008 34.148 100.392 34.384 99.7039 34.536C99.0159 34.688 98.3039 34.764 97.5679 34.764ZM105.943 34.5V15.744H108.943V26.736L108.259 26.4L113.527 21.756H117.451L111.211 27.312L111.919 26.016L117.391 34.5H114.055L109.855 27.696L110.623 27.828L108.583 29.652L108.943 28.248V34.5H105.943ZM131.725 16.8H137.101V34.5H134.089V18.816L134.161 18.84L130.357 34.5H126.133L122.281 18.828L122.353 18.792V34.5H119.341V16.8H124.717L128.305 32.772H128.101L131.725 16.8ZM140.337 34.5V21.756H143.457V34.5H140.337ZM141.909 19.404C141.397 19.404 140.949 19.268 140.565 18.996C140.189 18.716 140.001 18.328 140.001 17.832C140.001 17.344 140.189 16.964 140.565 16.692C140.949 16.42 141.397 16.284 141.909 16.284C142.413 16.284 142.853 16.42 143.229 16.692C143.605 16.964 143.793 17.344 143.793 17.832C143.793 18.328 143.605 18.716 143.229 18.996C142.853 19.268 142.413 19.404 141.909 19.404ZM155.596 34.5V28.848C155.596 28.528 155.596 28.248 155.596 28.008C155.596 27.76 155.596 27.536 155.596 27.336C155.596 26.76 155.512 26.244 155.344 25.788C155.184 25.324 154.904 24.96 154.504 24.696C154.112 24.432 153.568 24.3 152.872 24.3C152.264 24.3 151.724 24.448 151.252 24.744C150.78 25.032 150.408 25.432 150.136 25.944C149.872 26.448 149.74 27.032 149.74 27.696L148.672 27.036C148.672 25.972 148.912 25.028 149.392 24.204C149.88 23.372 150.532 22.72 151.348 22.248C152.164 21.776 153.068 21.54 154.06 21.54C155.084 21.54 155.944 21.74 156.64 22.14C157.344 22.54 157.872 23.108 158.224 23.844C158.584 24.58 158.764 25.444 158.764 26.436C158.764 26.82 158.764 27.252 158.764 27.732C158.764 28.212 158.764 28.684 158.764 29.148V34.5H155.596ZM146.584 34.5V21.756H149.74V34.5H146.584ZM167.087 34.764C166.039 34.764 165.067 34.512 164.171 34.008C163.283 33.496 162.571 32.744 162.035 31.752C161.499 30.76 161.231 29.54 161.231 28.092C161.231 26.684 161.503 25.492 162.047 24.516C162.599 23.54 163.319 22.8 164.207 22.296C165.103 21.792 166.063 21.54 167.087 21.54C168.087 21.54 169.011 21.788 169.859 22.284C170.707 22.772 171.387 23.452 171.899 24.324C172.411 25.196 172.667 26.196 172.667 27.324C172.667 27.356 172.667 27.388 172.667 27.42C172.667 27.452 172.667 27.484 172.667 27.516L171.107 27.552C171.107 27.528 171.107 27.504 171.107 27.48C171.107 27.448 171.107 27.42 171.107 27.396C171.107 26.764 170.947 26.212 170.627 25.74C170.315 25.268 169.907 24.9 169.403 24.636C168.907 24.364 168.379 24.228 167.819 24.228C166.899 24.228 166.115 24.54 165.467 25.164C164.819 25.78 164.495 26.756 164.495 28.092C164.495 29.42 164.819 30.4 165.467 31.032C166.115 31.664 166.899 31.98 167.819 31.98C168.403 31.98 168.943 31.84 169.439 31.56C169.935 31.28 170.335 30.896 170.639 30.408C170.951 29.912 171.107 29.344 171.107 28.704L172.667 28.776C172.667 29.896 172.415 30.912 171.911 31.824C171.415 32.728 170.747 33.444 169.907 33.972C169.067 34.5 168.127 34.764 167.087 34.764ZM171.107 34.5V15.744H174.275V34.5H171.107ZM178.557 29.148V26.904H187.473L187.113 27.504C187.113 27.456 187.113 27.404 187.113 27.348C187.113 27.284 187.113 27.232 187.113 27.192C187.113 26.64 186.989 26.124 186.741 25.644C186.493 25.156 186.117 24.764 185.613 24.468C185.109 24.164 184.469 24.012 183.693 24.012C182.925 24.012 182.257 24.176 181.689 24.504C181.129 24.824 180.693 25.288 180.381 25.896C180.077 26.504 179.925 27.232 179.925 28.08C179.925 28.952 180.073 29.704 180.369 30.336C180.665 30.96 181.097 31.44 181.665 31.776C182.241 32.104 182.941 32.268 183.765 32.268C184.325 32.268 184.809 32.216 185.217 32.112C185.625 32.008 185.957 31.868 186.213 31.692C186.477 31.508 186.673 31.312 186.801 31.104C186.937 30.896 187.017 30.688 187.041 30.48H190.185C190.137 31.016 189.957 31.54 189.645 32.052C189.341 32.556 188.913 33.016 188.361 33.432C187.809 33.84 187.137 34.168 186.345 34.416C185.561 34.656 184.665 34.776 183.657 34.776C182.289 34.776 181.093 34.496 180.069 33.936C179.045 33.376 178.245 32.596 177.669 31.596C177.101 30.596 176.817 29.452 176.817 28.164C176.817 26.844 177.105 25.688 177.681 24.696C178.265 23.704 179.073 22.932 180.105 22.38C181.137 21.82 182.321 21.54 183.657 21.54C185.033 21.54 186.221 21.82 187.221 22.38C188.229 22.94 189.005 23.72 189.549 24.72C190.093 25.712 190.365 26.868 190.365 28.188C190.365 28.356 190.361 28.536 190.353 28.728C190.345 28.92 190.333 29.06 190.317 29.148H178.557ZM192.967 34.5V21.756H196.123V25.992L195.391 25.584C195.471 25.032 195.619 24.512 195.835 24.024C196.051 23.528 196.339 23.096 196.699 22.728C197.059 22.352 197.495 22.06 198.007 21.852C198.519 21.644 199.103 21.54 199.759 21.54C200.279 21.54 200.687 21.58 200.983 21.66C201.287 21.732 201.475 21.792 201.547 21.84L200.971 24.732C200.891 24.676 200.727 24.608 200.479 24.528C200.239 24.44 199.915 24.396 199.507 24.396C198.859 24.396 198.315 24.508 197.875 24.732C197.443 24.948 197.099 25.244 196.843 25.62C196.587 25.988 196.403 26.396 196.291 26.844C196.179 27.284 196.123 27.724 196.123 28.164V34.5H192.967Z" fill="white"/>
</svg>
