<svg width="32" height="32" viewBox="0 0 32 32" fill="none" xmlns="http://www.w3.org/2000/svg">
<rect width="32" height="32" fill="#E15341"/>
<path d="M15.9789 18.3944C16.4261 18.8416 16.4261 19.6081 15.9789 20.0553L15.0526 20.9815C14.6055 21.4287 13.8389 21.4287 13.3918 20.9815L9.33537 16.8932C8.88821 16.4461 8.88821 15.6795 9.33537 15.2323L10.2616 14.3061C10.7088 13.8589 11.4754 13.8589 11.9225 14.3061L15.9789 18.3944Z" fill="white"/>
<path d="M19.5243 11.3354C19.9715 10.8882 20.738 10.8882 21.1852 11.3354L22.1114 12.2616C22.5586 12.7088 22.5586 13.4754 22.1114 13.9225L15.0846 20.9174C14.6375 21.3646 13.8709 21.3646 13.4237 20.9174L12.4975 19.9911C12.0503 19.544 12.0503 18.7774 12.4975 18.3302L19.5243 11.3354Z" fill="white"/>
</svg>
