<svg width="64" height="64" viewBox="0 0 64 64" fill="none" xmlns="http://www.w3.org/2000/svg">
<circle cx="32" cy="32" r="32" fill="#E15341"/>
<path d="M32 12C26.76 12 22.5 16.26 22.5 21.5C22.5 26.64 26.52 30.8 31.76 30.98C31.92 30.96 32.08 30.96 32.2 30.98C32.24 30.98 32.26 30.98 32.3 30.98C32.32 30.98 32.32 30.98 32.34 30.98C37.46 30.8 41.48 26.64 41.5 21.5C41.5 16.26 37.24 12 32 12Z" fill="white"/>
<path d="M42.1599 36.2998C36.5799 32.5798 27.4799 32.5798 21.8599 36.2998C19.3199 37.9998 17.9199 40.2998 17.9199 42.7598C17.9199 45.2198 19.3199 47.4998 21.8399 49.1798C24.6399 51.0598 28.3199 51.9998 31.9999 51.9998C35.6799 51.9998 39.3599 51.0598 42.1599 49.1798C44.6799 47.4798 46.0799 45.1998 46.0799 42.7198C46.0599 40.2598 44.6799 37.9798 42.1599 36.2998Z" fill="white"/>
</svg>
