<svg width="40" height="40" viewBox="0 0 40 40" fill="none" xmlns="http://www.w3.org/2000/svg">
<rect width="40" height="40" rx="20" fill="#E66652"/>
<path d="M29.53 23.9304C29.37 23.6604 28.92 23.2404 27.8 23.4404C27.18 23.5504 26.55 23.6004 25.92 23.5704C23.59 23.4704 21.48 22.4004 20.01 20.7504C18.71 19.3004 17.91 17.4104 17.9 15.3704C17.9 14.2304 18.12 13.1304 18.57 12.0904C19.01 11.0804 18.7 10.5504 18.48 10.3304C18.25 10.1004 17.71 9.78036 16.65 10.2204C12.56 11.9404 10.03 16.0404 10.33 20.4304C10.63 24.5604 13.53 28.0904 17.37 29.4204C18.29 29.7404 19.26 29.9304 20.26 29.9704C20.42 29.9804 20.58 29.9904 20.74 29.9904C24.09 29.9904 27.23 28.4104 29.21 25.7204C29.88 24.7904 29.7 24.2004 29.53 23.9304Z" fill="white"/>
</svg>
