<svg width="32" height="32" viewBox="0 0 32 32" fill="none" xmlns="http://www.w3.org/2000/svg">
<path d="M15.9791 18.3944C16.4263 18.8416 16.4263 19.6081 15.9791 20.0553L15.0529 20.9815C14.6057 21.4287 13.8392 21.4287 13.392 20.9815L9.33561 16.8932C8.88845 16.4461 8.88845 15.6795 9.33561 15.2323L10.2619 14.3061C10.709 13.8589 11.4756 13.8589 11.9228 14.3061L15.9791 18.3944Z" fill="white"/>
<path d="M19.5245 11.3354C19.9716 10.8882 20.7382 10.8882 21.1854 11.3354L22.1116 12.2616C22.5588 12.7088 22.5588 13.4754 22.1116 13.9225L15.0848 20.9174C14.6376 21.3646 13.8711 21.3646 13.4239 20.9174L12.4977 19.9911C12.0505 19.544 12.0505 18.7774 12.4977 18.3302L19.5245 11.3354Z" fill="white"/>
<rect x="0.5" y="0.5" width="31" height="31" stroke="#07F349"/>
</svg>
