<svg width="18" height="14" viewBox="0 0 18 14" fill="none" xmlns="http://www.w3.org/2000/svg">
<path d="M9.3052 9.8592C9.90142 10.4554 9.90142 11.4775 9.3052 12.0737L8.07019 13.3087C7.47397 13.9049 6.45189 13.9049 5.85568 13.3087L0.447161 7.85762C-0.149054 7.26141 -0.149054 6.23933 0.447161 5.64311L1.68218 4.4081C2.27839 3.81188 3.30047 3.81188 3.89669 4.4081L9.3052 9.8592Z" fill="white"/>
<path d="M14.0324 0.447161C14.6286 -0.149054 15.6507 -0.149054 16.2469 0.447161L17.4819 1.68218C18.0781 2.27839 18.0781 3.30047 17.4819 3.89669L8.11281 13.2232C7.5166 13.8194 6.49452 13.8194 5.8983 13.2232L4.66329 11.9882C4.06707 11.392 4.06707 10.3699 4.66329 9.77366L14.0324 0.447161Z" fill="white"/>
</svg>
